<svg width="450" height="44" viewBox="0 0 450 44" fill="none" xmlns="http://www.w3.org/2000/svg">
<path d="M0 10C0 4.47715 4.47715 0 10 0H440C445.523 0 450 4.47715 450 10V34C450 39.5228 445.523 44 440 44H10C4.47715 44 0 39.5228 0 34V10Z" fill="#009FAC"/>
<path d="M227.5 0.5H440C445.247 0.5 449.5 4.7533 449.5 10V34C449.5 39.2467 445.247 43.5 440 43.5H227.5C222.253 43.5 218 39.2467 218 34V10C218 4.7533 222.253 0.5 227.5 0.5Z" fill="#E0F0FF" stroke="#E0F0FF"/>
<path d="M270.117 29.0962L266.417 18.3647H266.338C266.355 18.605 266.376 18.9331 266.399 19.3491C266.423 19.7651 266.443 20.2104 266.461 20.6851C266.479 21.1597 266.487 21.6138 266.487 22.0474V29.0962H264.571V16.2466H267.533L271.093 26.5034H271.146L274.828 16.2466H277.781V29.0962H275.769V21.9419C275.769 21.5493 275.774 21.1245 275.786 20.6675C275.804 20.2104 275.821 19.7769 275.839 19.3667C275.862 18.9565 275.88 18.6284 275.892 18.3823H275.821L271.98 29.0962H270.117ZM289.128 29.0962L287.871 25.5278H282.958L281.701 29.0962H279.478L284.259 16.1938H286.597L291.369 29.0962H289.128ZM287.326 23.7173L286.104 20.2017C286.058 20.0493 285.99 19.8354 285.902 19.5601C285.814 19.2788 285.727 18.9946 285.639 18.7075C285.551 18.4146 285.478 18.1685 285.419 17.9692C285.36 18.2095 285.287 18.479 285.199 18.7778C285.117 19.0708 285.035 19.3462 284.953 19.604C284.877 19.8618 284.818 20.061 284.777 20.2017L283.547 23.7173H287.326ZM300.738 16.2466V18.0396H295.175V29.0962H293.065V16.2466H300.738ZM302.812 16.2466H304.737V23.0581C304.737 23.3511 304.734 23.6733 304.729 24.0249C304.723 24.3765 304.711 24.7192 304.693 25.0532C304.682 25.3872 304.67 25.686 304.658 25.9497C304.646 26.2075 304.635 26.395 304.623 26.5122H304.685L311.224 16.2466H313.676V29.0962H311.769V22.3374C311.769 22.021 311.774 21.6782 311.786 21.3091C311.798 20.9399 311.812 20.5825 311.83 20.2368C311.848 19.8911 311.865 19.5864 311.883 19.3228C311.9 19.0591 311.912 18.8716 311.918 18.7603H311.839L305.282 29.0962H302.812V16.2466ZM322.535 17.855C321.92 17.855 321.369 17.9663 320.883 18.189C320.402 18.4116 319.995 18.7339 319.661 19.1558C319.327 19.5718 319.072 20.0786 318.896 20.6763C318.721 21.2681 318.633 21.936 318.633 22.6802C318.633 23.6763 318.773 24.5347 319.055 25.2554C319.336 25.9702 319.764 26.521 320.338 26.9077C320.912 27.2886 321.639 27.479 322.518 27.479C323.062 27.479 323.593 27.4263 324.108 27.3208C324.624 27.2153 325.157 27.0718 325.708 26.8901V28.6831C325.187 28.8882 324.659 29.0376 324.126 29.1313C323.593 29.2251 322.978 29.272 322.28 29.272C320.968 29.272 319.878 28.9995 319.011 28.4546C318.149 27.9097 317.505 27.1421 317.077 26.1519C316.655 25.1616 316.444 24.0015 316.444 22.6714C316.444 21.6987 316.579 20.8081 316.849 19.9995C317.118 19.1909 317.511 18.4937 318.026 17.9077C318.542 17.3159 319.178 16.8618 319.934 16.5454C320.695 16.2231 321.565 16.062 322.544 16.062C323.188 16.062 323.821 16.1353 324.442 16.2817C325.069 16.4224 325.649 16.6245 326.183 16.8882L325.444 18.6284C324.999 18.4175 324.533 18.2358 324.047 18.0835C323.561 17.9312 323.057 17.855 322.535 17.855ZM332.924 29.0962H330.806V18.0396H327.044V16.2466H336.677V18.0396H332.924V29.0962ZM342.381 16.2466C344.039 16.2466 345.249 16.5864 346.011 17.2661C346.772 17.9458 347.153 18.8979 347.153 20.1226C347.153 20.6792 347.065 21.2095 346.89 21.7134C346.72 22.2114 346.438 22.6538 346.046 23.0405C345.653 23.4214 345.135 23.7231 344.49 23.9458C343.852 24.1685 343.063 24.2798 342.126 24.2798H340.755V29.0962H338.646V16.2466H342.381ZM342.24 17.9956H340.755V22.522H341.906C342.568 22.522 343.131 22.4458 343.594 22.2935C344.057 22.1353 344.408 21.8862 344.648 21.5464C344.889 21.2065 345.009 20.7583 345.009 20.2017C345.009 19.4575 344.783 18.9038 344.332 18.5405C343.887 18.1772 343.189 17.9956 342.24 17.9956ZM357.683 29.0962L356.426 25.5278H351.513L350.256 29.0962H348.032L352.813 16.1938H355.151L359.924 29.0962H357.683ZM355.881 23.7173L354.659 20.2017C354.612 20.0493 354.545 19.8354 354.457 19.5601C354.369 19.2788 354.281 18.9946 354.193 18.7075C354.105 18.4146 354.032 18.1685 353.974 17.9692C353.915 18.2095 353.842 18.479 353.754 18.7778C353.672 19.0708 353.59 19.3462 353.508 19.604C353.432 19.8618 353.373 20.061 353.332 20.2017L352.102 23.7173H355.881ZM366.076 29.0962H363.958V18.0396H360.196V16.2466H369.829V18.0396H366.076V29.0962ZM381.642 16.2466L377.555 25.4487C377.197 26.269 376.822 26.9634 376.43 27.5317C376.043 28.1001 375.565 28.5337 374.997 28.8325C374.429 29.1255 373.693 29.272 372.791 29.272C372.463 29.272 372.135 29.2485 371.807 29.2017C371.479 29.1548 371.177 29.0903 370.901 29.0083V27.0923C371.165 27.2036 371.449 27.2886 371.754 27.3472C372.064 27.3999 372.372 27.4263 372.677 27.4263C373.104 27.4263 373.459 27.3589 373.74 27.2241C374.027 27.0894 374.268 26.8901 374.461 26.6265C374.66 26.3569 374.839 26.0288 374.997 25.6421L370.295 16.2466H372.554L375.586 22.6187C375.633 22.7183 375.691 22.8472 375.762 23.0054C375.832 23.1577 375.899 23.3159 375.964 23.48C376.034 23.6382 376.093 23.7847 376.14 23.9194H376.219C376.26 23.8022 376.31 23.6646 376.368 23.5063C376.433 23.3423 376.497 23.1753 376.562 23.0054C376.632 22.8354 376.693 22.686 376.746 22.5571L379.436 16.2466H381.642ZM387.064 16.2466C388.723 16.2466 389.933 16.5864 390.694 17.2661C391.456 17.9458 391.837 18.8979 391.837 20.1226C391.837 20.6792 391.749 21.2095 391.573 21.7134C391.403 22.2114 391.122 22.6538 390.729 23.0405C390.337 23.4214 389.818 23.7231 389.174 23.9458C388.535 24.1685 387.747 24.2798 386.81 24.2798H385.438V29.0962H383.329V16.2466H387.064ZM386.924 17.9956H385.438V22.522H386.59C387.252 22.522 387.814 22.4458 388.277 22.2935C388.74 22.1353 389.092 21.8862 389.332 21.5464C389.572 21.2065 389.692 20.7583 389.692 20.2017C389.692 19.4575 389.467 18.9038 389.016 18.5405C388.57 18.1772 387.873 17.9956 386.924 17.9956ZM402.366 29.0962L401.109 25.5278H396.196L394.939 29.0962H392.716L397.497 16.1938H399.835L404.607 29.0962H402.366ZM400.564 23.7173L399.343 20.2017C399.296 20.0493 399.229 19.8354 399.141 19.5601C399.053 19.2788 398.965 18.9946 398.877 18.7075C398.789 18.4146 398.716 18.1685 398.657 17.9692C398.599 18.2095 398.525 18.479 398.438 18.7778C398.355 19.0708 398.273 19.3462 398.191 19.604C398.115 19.8618 398.057 20.061 398.016 20.2017L396.785 23.7173H400.564Z" fill="#000D26"/>
<path d="M53.9336 27.6296L52.3516 23.5515H47.2012L45.6279 27.6296H44.1162L49.1436 14.7273H50.4883L55.4805 27.6296H53.9336ZM51.9033 22.2244L50.4004 18.1726C50.3652 18.0671 50.3066 17.8943 50.2246 17.6541C50.1484 17.4138 50.0693 17.1648 49.9873 16.907C49.9053 16.6492 49.8379 16.4412 49.7852 16.283C49.7266 16.5232 49.6621 16.7634 49.5918 17.0037C49.5273 17.238 49.4629 17.4578 49.3984 17.6628C49.334 17.8621 49.2783 18.032 49.2314 18.1726L47.7021 22.2244H51.9033ZM62.8578 15.9138C62.1488 15.9138 61.5102 16.0369 60.9418 16.283C60.3793 16.5232 59.8988 16.8748 59.5004 17.3376C59.1078 17.7947 58.8061 18.3484 58.5951 18.9988C58.3842 19.6492 58.2787 20.3816 58.2787 21.196C58.2787 22.2742 58.4457 23.2117 58.7797 24.0085C59.1195 24.7996 59.6234 25.4119 60.2914 25.8455C60.9652 26.2791 61.8061 26.4958 62.8139 26.4958C63.3881 26.4958 63.9271 26.449 64.4311 26.3552C64.9408 26.2556 65.4359 26.1326 65.9164 25.9861V27.2869C65.4477 27.4626 64.9555 27.5916 64.4398 27.6736C63.9242 27.7615 63.3119 27.8054 62.6029 27.8054C61.2963 27.8054 60.2035 27.5359 59.3246 26.9968C58.4516 26.4519 57.7953 25.6843 57.3559 24.6941C56.9223 23.7039 56.7055 22.5349 56.7055 21.1873C56.7055 20.2146 56.8402 19.3269 57.1098 18.5242C57.3852 17.7156 57.7836 17.0183 58.3051 16.4324C58.8324 15.8464 59.477 15.3953 60.2387 15.0789C61.0062 14.7566 61.8852 14.5955 62.8754 14.5955C63.5258 14.5955 64.1527 14.6599 64.7562 14.7888C65.3598 14.9177 65.9047 15.1023 66.391 15.3425L65.7934 16.6082C65.3832 16.4207 64.932 16.2595 64.4398 16.1248C63.9535 15.9841 63.4262 15.9138 62.8578 15.9138ZM68.8025 27.6296V14.78H78.3738V27.6296H76.8973V16.0984H70.2967V27.6296H68.8025ZM82.0334 14.78H83.4309V22.2068C83.4309 22.488 83.4279 22.7957 83.4221 23.1296C83.4162 23.4578 83.4074 23.78 83.3957 24.0964C83.384 24.4128 83.3693 24.7 83.3518 24.9578C83.34 25.2156 83.3283 25.4148 83.3166 25.5554H83.3869L90.5412 14.78H92.1848V27.6296H90.7873V20.2908C90.7873 19.9802 90.7932 19.6521 90.8049 19.3064C90.8166 18.9548 90.8283 18.615 90.84 18.2869C90.8576 17.9587 90.8752 17.6658 90.8928 17.408C90.9104 17.1443 90.9221 16.9421 90.9279 16.8015H90.8488L83.6857 27.6296H82.0334V14.78ZM99.149 14.78C100.807 14.78 102.017 15.1052 102.779 15.7556C103.546 16.4001 103.93 17.3259 103.93 18.533C103.93 19.0779 103.839 19.5964 103.658 20.0886C103.482 20.575 103.195 21.0056 102.796 21.3806C102.398 21.7498 101.874 22.0427 101.223 22.2595C100.579 22.4705 99.7877 22.5759 98.8502 22.5759H97.2857V27.6296H95.7916V14.78H99.149ZM99.0084 16.0544H97.2857V21.2927H98.6832C99.5035 21.2927 100.186 21.2048 100.731 21.0291C101.282 20.8533 101.695 20.5691 101.97 20.1765C102.246 19.7781 102.383 19.2507 102.383 18.5945C102.383 17.739 102.111 17.1033 101.566 16.6873C101.021 16.2654 100.169 16.0544 99.0084 16.0544ZM114.779 27.6296L113.197 23.5515H108.047L106.474 27.6296H104.962L109.989 14.7273H111.334L116.326 27.6296H114.779ZM112.749 22.2244L111.246 18.1726C111.211 18.0671 111.152 17.8943 111.07 17.6541C110.994 17.4138 110.915 17.1648 110.833 16.907C110.751 16.6492 110.684 16.4412 110.631 16.283C110.572 16.5232 110.508 16.7634 110.438 17.0037C110.373 17.238 110.309 17.4578 110.244 17.6628C110.18 17.8621 110.124 18.032 110.077 18.1726L108.548 22.2244H112.749ZM127.949 27.6296H126.454V21.574H119.704V27.6296H118.21V14.78H119.704V20.2556H126.454V14.78H127.949V27.6296ZM135.528 27.6296H134.025V16.0984H129.982V14.78H139.554V16.0984H135.528V27.6296ZM150.956 14.78L146.773 24.0964C146.409 24.9167 146.04 25.6023 145.665 26.1531C145.29 26.7039 144.845 27.1169 144.329 27.3923C143.814 27.6677 143.16 27.8054 142.369 27.8054C142.029 27.8054 141.713 27.7791 141.42 27.7263C141.133 27.6794 140.875 27.6179 140.647 27.5417V26.0564C140.881 26.1677 141.133 26.2556 141.403 26.3201C141.678 26.3787 141.968 26.408 142.273 26.408C142.724 26.408 143.111 26.3406 143.433 26.2058C143.755 26.0652 144.039 25.8455 144.285 25.5466C144.531 25.2419 144.766 24.8406 144.988 24.3425L140.031 14.78H141.666L145.322 21.9607C145.369 22.0486 145.419 22.1511 145.472 22.2683C145.525 22.3796 145.577 22.4968 145.63 22.6199C145.683 22.7371 145.73 22.8542 145.771 22.9714H145.832C145.867 22.8835 145.905 22.781 145.946 22.6638C145.993 22.5466 146.04 22.4294 146.087 22.3123C146.134 22.1951 146.175 22.0955 146.21 22.0134L149.365 14.78H150.956ZM156.18 14.78C157.838 14.78 159.048 15.1052 159.81 15.7556C160.578 16.4001 160.962 17.3259 160.962 18.533C160.962 19.0779 160.871 19.5964 160.689 20.0886C160.513 20.575 160.226 21.0056 159.828 21.3806C159.429 21.7498 158.905 22.0427 158.254 22.2595C157.61 22.4705 156.819 22.5759 155.881 22.5759H154.317V27.6296H152.823V14.78H156.18ZM156.04 16.0544H154.317V21.2927H155.714C156.535 21.2927 157.217 21.2048 157.762 21.0291C158.313 20.8533 158.726 20.5691 159.002 20.1765C159.277 19.7781 159.415 19.2507 159.415 18.5945C159.415 17.739 159.142 17.1033 158.597 16.6873C158.052 16.2654 157.2 16.0544 156.04 16.0544ZM171.811 27.6296L170.229 23.5515H165.078L163.505 27.6296H161.993L167.021 14.7273H168.365L173.357 27.6296H171.811ZM169.78 22.2244L168.277 18.1726C168.242 18.0671 168.184 17.8943 168.102 17.6541C168.025 17.4138 167.946 17.1648 167.864 16.907C167.782 16.6492 167.715 16.4412 167.662 16.283C167.604 16.5232 167.539 16.7634 167.469 17.0037C167.404 17.238 167.34 17.4578 167.275 17.6628C167.211 17.8621 167.155 18.032 167.108 18.1726L165.579 22.2244H169.78Z" fill="white"/>
<path d="M10 1H440V-1H10V1ZM449 10V34H451V10H449ZM440 43H10V45H440V43ZM1 34V10H-1V34H1ZM10 43C5.02944 43 1 38.9706 1 34H-1C-1 40.0751 3.92487 45 10 45V43ZM449 34C449 38.9706 444.971 43 440 43V45C446.075 45 451 40.0751 451 34H449ZM440 1C444.971 1 449 5.02944 449 10H451C451 3.92487 446.075 -1 440 -1V1ZM10 -1C3.92487 -1 -1 3.92487 -1 10H1C1 5.02944 5.02944 1 10 1V-1Z" fill="#E0F0FF"/>
</svg>
