<svg width="540" height="60" viewBox="0 0 540 60" fill="none" xmlns="http://www.w3.org/2000/svg">
<path d="M0 10C0 4.47715 4.47715 0 10 0H530C535.523 0 540 4.47715 540 10V50C540 55.5228 535.523 60 530 60H9.99999C4.47715 60 0 55.5228 0 50V10Z" fill="#009FAC"/>
<path d="M343.058 37.4949L338.699 26.1042H338.629C338.711 27.0066 338.752 28.0789 338.752 29.321V37.4949H337.372V24.6453H339.622L343.691 35.2449H343.762L347.866 24.6453H350.098V37.4949H348.604V29.2156C348.604 28.2664 348.645 27.2351 348.727 26.1218H348.657L344.262 37.4949H343.058ZM361.809 37.4949L360.209 33.408H355.059L353.477 37.4949H351.965L357.045 24.5925H358.302L363.356 37.4949H361.809ZM359.743 32.0632L358.249 28.0818C358.056 27.5779 357.857 26.9597 357.652 26.2273C357.523 26.7898 357.338 27.408 357.098 28.0818L355.586 32.0632H359.743ZM372.385 24.6453V25.99H366.716V37.4949H365.222V24.6453H372.385ZM374.709 24.6453H376.106V31.7908C376.106 33.1091 376.065 34.3015 375.983 35.3679H376.054L383.261 24.6453H384.896V37.4949H383.489V30.4197C383.489 29.2419 383.539 28.0056 383.639 26.7107H383.56L376.344 37.4949H374.709V24.6453ZM394.022 25.7966C392.61 25.7966 391.494 26.2683 390.673 27.2117C389.859 28.1492 389.452 29.4353 389.452 31.0701C389.452 32.7517 389.844 34.0525 390.629 34.9724C391.42 35.8865 392.545 36.3435 394.004 36.3435C394.901 36.3435 395.923 36.1824 397.072 35.8601V37.1697C396.181 37.5037 395.082 37.6707 393.776 37.6707C391.883 37.6707 390.421 37.0964 389.39 35.948C388.365 34.7996 387.852 33.1677 387.852 31.0525C387.852 29.7283 388.098 28.5681 388.59 27.572C389.088 26.5759 389.803 25.8083 390.735 25.2693C391.672 24.7302 392.774 24.4607 394.039 24.4607C395.387 24.4607 396.565 24.7068 397.573 25.199L396.94 26.4822C395.967 26.0251 394.995 25.7966 394.022 25.7966ZM403.93 37.4949H402.436V25.9724H398.367V24.6453H408V25.9724H403.93V37.4949ZM418.19 28.3894C418.19 29.6902 417.744 30.6921 416.854 31.3953C415.969 32.0925 414.7 32.4412 413.048 32.4412H411.536V37.4949H410.042V24.6453H413.373C416.584 24.6453 418.19 25.8933 418.19 28.3894ZM411.536 31.158H412.881C414.205 31.158 415.163 30.9441 415.755 30.5164C416.347 30.0886 416.643 29.4031 416.643 28.4597C416.643 27.6101 416.364 26.9773 415.808 26.5613C415.251 26.1453 414.384 25.9373 413.206 25.9373H411.536V31.158ZM429.065 37.4949L427.465 33.408H422.315L420.733 37.4949H419.221L424.301 24.5925H425.558L430.612 37.4949H429.065ZM427 32.0632L425.505 28.0818C425.312 27.5779 425.113 26.9597 424.908 26.2273C424.779 26.7898 424.594 27.408 424.354 28.0818L422.842 32.0632H427ZM436.434 37.4949H434.939V25.9724H430.87V24.6453H440.503V25.9724H436.434V37.4949ZM443.354 37.6707C442.704 37.6707 442.132 37.5828 441.64 37.407V35.948C442.185 36.2 442.739 36.3259 443.301 36.3259C443.946 36.3259 444.461 36.1794 444.848 35.8865C445.241 35.5876 445.63 35.031 446.017 34.2166L441.016 24.6453H442.668L446.465 31.949C446.612 32.2361 446.726 32.5173 446.808 32.7927H446.878C447.042 32.3005 447.157 31.99 447.221 31.8611L450.376 24.6453H451.958L447.854 33.8386C447.362 34.9343 446.916 35.7312 446.518 36.2292C446.125 36.7273 445.68 37.0935 445.182 37.3279C444.69 37.5564 444.08 37.6707 443.354 37.6707ZM461.972 28.3894C461.972 29.6902 461.527 30.6921 460.637 31.3953C459.752 32.0925 458.483 32.4412 456.831 32.4412H455.319V37.4949H453.825V24.6453H457.156C460.367 24.6453 461.972 25.8933 461.972 28.3894ZM455.319 31.158H456.664C457.988 31.158 458.946 30.9441 459.538 30.5164C460.13 30.0886 460.426 29.4031 460.426 28.4597C460.426 27.6101 460.147 26.9773 459.591 26.5613C459.034 26.1453 458.167 25.9373 456.989 25.9373H455.319V31.158ZM472.848 37.4949L471.248 33.408H466.098L464.516 37.4949H463.004L468.084 24.5925H469.341L474.395 37.4949H472.848ZM470.782 32.0632L469.288 28.0818C469.095 27.5779 468.896 26.9597 468.691 26.2273C468.562 26.7898 468.377 27.408 468.137 28.0818L466.625 32.0632H470.782Z" fill="white"/>
<path d="M0.5 10C0.5 4.7533 4.75329 0.5 10 0.5H259.758C265.005 0.5 269.258 4.7533 269.258 10V50C269.258 55.2467 265.005 59.5 259.758 59.5H10C4.7533 59.5 0.5 55.2467 0.5 50V10Z" fill="#E0F0FF" stroke="#E0F0FF"/>
<path d="M78.6797 36.4949L77.3965 32.9265H72.4834L71.2266 36.4949H69.0117L73.8193 23.5925H76.1045L80.9121 36.4949H78.6797ZM76.8428 31.116L75.6387 27.6179C75.5508 27.3835 75.4277 27.0144 75.2695 26.5105C75.1172 26.0066 75.0117 25.6375 74.9531 25.4031C74.7949 26.1238 74.5635 26.9119 74.2588 27.7673L73.0986 31.116H76.8428ZM88.0752 25.2625C86.8682 25.2625 85.9189 25.6902 85.2275 26.5457C84.5361 27.4011 84.1904 28.5818 84.1904 30.0876C84.1904 31.6638 84.5215 32.8562 85.1836 33.6648C85.8516 34.4734 86.8154 34.8777 88.0752 34.8777C88.6201 34.8777 89.1475 34.825 89.6572 34.7195C90.167 34.6082 90.6973 34.4675 91.248 34.2976V36.0994C90.2402 36.4802 89.0977 36.6707 87.8203 36.6707C85.9395 36.6707 84.4951 36.1023 83.4873 34.9656C82.4795 33.823 81.9756 32.1912 81.9756 30.0701C81.9756 28.7341 82.2188 27.5652 82.7051 26.5632C83.1973 25.5613 83.9062 24.7937 84.832 24.2605C85.7578 23.7273 86.8447 23.4607 88.0928 23.4607C89.4053 23.4607 90.6182 23.7361 91.7314 24.2869L90.9756 26.0359C90.542 25.8308 90.082 25.6521 89.5957 25.4998C89.1152 25.3416 88.6084 25.2625 88.0752 25.2625ZM103.896 36.4949H101.786V25.447H96.1172V36.4949H94.0166V23.6453H103.896V36.4949ZM107.288 23.6453H109.213V30.325C109.213 31.0222 109.195 31.7283 109.16 32.4431C109.125 33.1521 109.099 33.6326 109.081 33.8845H109.16L115.726 23.6453H118.178V36.4949H116.244V29.8679C116.244 28.8542 116.3 27.6238 116.411 26.1765H116.341L109.749 36.4949H107.288V23.6453ZM130.052 27.53C130.052 28.8718 129.612 29.9001 128.733 30.615C127.854 31.3298 126.604 31.6873 124.98 31.6873H123.645V36.4949H121.544V23.6453H125.244C126.85 23.6453 128.051 23.9734 128.848 24.6296C129.65 25.2859 130.052 26.2527 130.052 27.53ZM123.645 29.9207H124.761C125.839 29.9207 126.63 29.7332 127.134 29.3582C127.638 28.9832 127.89 28.3972 127.89 27.6003C127.89 26.8621 127.664 26.3113 127.213 25.948C126.762 25.5847 126.059 25.4031 125.104 25.4031H123.645V29.9207ZM140.59 36.4949L139.307 32.9265H134.394L133.137 36.4949H130.922L135.729 23.5925H138.015L142.822 36.4949H140.59ZM138.753 31.116L137.549 27.6179C137.461 27.3835 137.338 27.0144 137.18 26.5105C137.027 26.0066 136.922 25.6375 136.863 25.4031C136.705 26.1238 136.474 26.9119 136.169 27.7673L135.009 31.116H138.753ZM154.652 36.4949H152.543V30.7029H146.619V36.4949H144.519V23.6453H146.619V28.9011H152.543V23.6453H154.652V36.4949ZM162.475 36.4949H160.374V25.447H156.595V23.6453H166.254V25.447H162.475V36.4949ZM178.005 23.6453L173.953 32.7859C173.455 33.905 172.998 34.7166 172.582 35.2205C172.166 35.7185 171.683 36.0847 171.132 36.3191C170.587 36.5535 169.925 36.6707 169.146 36.6707C168.466 36.6707 167.836 36.5828 167.256 36.407V34.5173C167.83 34.7458 168.431 34.8601 169.058 34.8601C169.591 34.8601 170.036 34.7312 170.394 34.4734C170.757 34.2097 171.085 33.738 171.378 33.0583L166.641 23.6453H168.908L172.046 30.0876C172.327 30.697 172.5 31.1042 172.564 31.3093H172.652C172.688 31.157 172.775 30.9138 172.916 30.5798L175.808 23.6453H178.005ZM188.218 27.53C188.218 28.8718 187.778 29.9001 186.899 30.615C186.021 31.3298 184.77 31.6873 183.146 31.6873H181.811V36.4949H179.71V23.6453H183.41C185.016 23.6453 186.217 23.9734 187.014 24.6296C187.816 25.2859 188.218 26.2527 188.218 27.53ZM181.811 29.9207H182.927C184.005 29.9207 184.796 29.7332 185.3 29.3582C185.804 28.9832 186.056 28.3972 186.056 27.6003C186.056 26.8621 185.83 26.3113 185.379 25.948C184.928 25.5847 184.225 25.4031 183.27 25.4031H181.811V29.9207ZM198.756 36.4949L197.473 32.9265H192.56L191.303 36.4949H189.088L193.896 23.5925H196.181L200.988 36.4949H198.756ZM196.919 31.116L195.715 27.6179C195.627 27.3835 195.504 27.0144 195.346 26.5105C195.193 26.0066 195.088 25.6375 195.029 25.4031C194.871 26.1238 194.64 26.9119 194.335 27.7673L193.175 31.116H196.919Z" fill="#000D26"/>
<path d="M10 1H530V-1H10V1ZM539 10V50H541V10H539ZM530 59H9.99999V61H530V59ZM1 50V10H-1V50H1ZM9.99999 59C5.02943 59 1 54.9706 1 50H-1C-1 56.0751 3.92486 61 9.99999 61V59ZM539 50C539 54.9706 534.971 59 530 59V61C536.075 61 541 56.0751 541 50H539ZM530 1C534.971 1 539 5.02944 539 10H541C541 3.92487 536.075 -1 530 -1V1ZM10 -1C3.92487 -1 -1 3.92487 -1 10H1C1 5.02944 5.02944 1 10 1V-1Z" fill="#E0F0FF"/>
</svg>
