<svg width="288" height="40" viewBox="0 0 288 40" fill="none" xmlns="http://www.w3.org/2000/svg">
<path d="M0 5C0 2.23858 2.23858 0 5 0H283C285.761 0 288 2.23858 288 5V35C288 37.7614 285.761 40 283 40H5C2.23857 40 0 37.7614 0 35V5Z" fill="#009FAC"/>
<path d="M139.699 5C139.699 2.51472 141.714 0.5 144.199 0.5H282.999C285.484 0.5 287.499 2.51472 287.499 5V35C287.499 37.4853 285.484 39.5 282.999 39.5H144.199C141.714 39.5 139.699 37.4853 139.699 35V5Z" fill="#E0F0FF" stroke="#E0F0FF"/>
<path d="M170.854 24.9966L168.387 17.8423H168.334C168.346 18.0024 168.36 18.2212 168.375 18.4985C168.391 18.7759 168.405 19.0728 168.416 19.3892C168.428 19.7056 168.434 20.0083 168.434 20.2974V24.9966H167.156V16.4302H169.131L171.504 23.2681H171.539L173.994 16.4302H175.963V24.9966H174.621V20.2271C174.621 19.9653 174.625 19.6821 174.633 19.3774C174.645 19.0728 174.656 18.7837 174.668 18.5103C174.684 18.2368 174.696 18.0181 174.703 17.854H174.656L172.096 24.9966H170.854ZM183.586 24.9966L182.749 22.6177H179.473L178.635 24.9966H177.153L180.34 16.395H181.899L185.081 24.9966H183.586ZM182.385 21.4106L181.571 19.0669C181.54 18.9653 181.495 18.8228 181.436 18.6392C181.377 18.4517 181.319 18.2622 181.26 18.0708C181.202 17.8755 181.153 17.7114 181.114 17.5786C181.075 17.7388 181.026 17.9185 180.967 18.1177C180.913 18.313 180.858 18.4966 180.803 18.6685C180.752 18.8403 180.713 18.9731 180.686 19.0669L179.866 21.4106H182.385ZM191.385 16.4302V17.6255H187.676V24.9966H186.27V16.4302H191.385ZM192.827 16.4302H194.11V20.9712C194.11 21.1665 194.108 21.3813 194.104 21.6157C194.101 21.8501 194.093 22.0786 194.081 22.3013C194.073 22.5239 194.065 22.7231 194.058 22.8989C194.05 23.0708 194.042 23.1958 194.034 23.2739H194.075L198.435 16.4302H200.069V24.9966H198.798V20.4907C198.798 20.2798 198.802 20.0513 198.81 19.8052C198.817 19.5591 198.827 19.3208 198.839 19.0903C198.851 18.8599 198.862 18.6567 198.874 18.481C198.886 18.3052 198.894 18.1802 198.897 18.106H198.845L194.474 24.9966H192.827V16.4302ZM206.034 17.5024C205.624 17.5024 205.257 17.5767 204.933 17.7251C204.613 17.8735 204.341 18.0884 204.118 18.3696C203.896 18.647 203.726 18.9849 203.609 19.3833C203.491 19.7778 203.433 20.2231 203.433 20.7192C203.433 21.3833 203.527 21.9556 203.714 22.436C203.902 22.9126 204.187 23.2798 204.57 23.5376C204.952 23.7915 205.437 23.9185 206.023 23.9185C206.386 23.9185 206.739 23.8833 207.083 23.813C207.427 23.7427 207.782 23.647 208.15 23.5259V24.7212C207.802 24.8579 207.45 24.9575 207.095 25.02C206.739 25.0825 206.329 25.1138 205.864 25.1138C204.989 25.1138 204.263 24.9321 203.685 24.5688C203.111 24.2056 202.681 23.6938 202.396 23.0337C202.114 22.3735 201.974 21.6001 201.974 20.7134C201.974 20.0649 202.064 19.4712 202.243 18.9321C202.423 18.3931 202.685 17.9282 203.029 17.5376C203.372 17.1431 203.796 16.8403 204.3 16.6294C204.808 16.4146 205.388 16.3071 206.04 16.3071C206.47 16.3071 206.892 16.356 207.306 16.4536C207.724 16.5474 208.111 16.6821 208.466 16.8579L207.974 18.0181C207.677 17.8774 207.366 17.7563 207.042 17.6548C206.718 17.5532 206.382 17.5024 206.034 17.5024ZM213.019 24.9966H211.607V17.6255H209.099V16.4302H215.521V17.6255H213.019V24.9966ZM219.383 16.4302C220.488 16.4302 221.295 16.6567 221.802 17.1099C222.31 17.563 222.564 18.1978 222.564 19.0142C222.564 19.3853 222.506 19.7388 222.388 20.0747C222.275 20.4067 222.088 20.7017 221.826 20.9595C221.564 21.2134 221.218 21.4146 220.789 21.563C220.363 21.7114 219.838 21.7856 219.213 21.7856H218.299V24.9966H216.892V16.4302H219.383ZM219.289 17.5962H218.299V20.6138H219.066C219.508 20.6138 219.883 20.563 220.191 20.4614C220.5 20.356 220.734 20.1899 220.894 19.9634C221.054 19.7368 221.134 19.438 221.134 19.0669C221.134 18.5708 220.984 18.2017 220.683 17.9595C220.386 17.7173 219.922 17.5962 219.289 17.5962ZM229.643 24.9966L228.805 22.6177H225.529L224.691 24.9966H223.209L226.396 16.395H227.955L231.137 24.9966H229.643ZM228.441 21.4106L227.627 19.0669C227.596 18.9653 227.551 18.8228 227.492 18.6392C227.434 18.4517 227.375 18.2622 227.316 18.0708C227.258 17.8755 227.209 17.7114 227.17 17.5786C227.131 17.7388 227.082 17.9185 227.023 18.1177C226.969 18.313 226.914 18.4966 226.859 18.6685C226.809 18.8403 226.77 18.9731 226.742 19.0669L225.922 21.4106H228.441ZM235.297 24.9966H233.885V17.6255H231.377V16.4302H237.799V17.6255H235.297V24.9966ZM245.733 16.4302L243.008 22.5649C242.77 23.1118 242.52 23.5747 242.258 23.9536C242 24.3325 241.682 24.6216 241.303 24.8208C240.924 25.0161 240.434 25.1138 239.832 25.1138C239.614 25.1138 239.395 25.0981 239.176 25.0669C238.957 25.0356 238.756 24.9927 238.573 24.938V23.6606C238.749 23.7349 238.938 23.7915 239.141 23.8306C239.348 23.8657 239.553 23.8833 239.756 23.8833C240.041 23.8833 240.278 23.8384 240.465 23.7485C240.657 23.6587 240.817 23.5259 240.946 23.3501C241.079 23.1704 241.198 22.9517 241.303 22.6938L238.168 16.4302H239.674L241.696 20.6782C241.727 20.7446 241.766 20.8306 241.813 20.936C241.86 21.0376 241.905 21.1431 241.948 21.2524C241.995 21.3579 242.034 21.4556 242.065 21.5454H242.118C242.145 21.4673 242.178 21.3755 242.217 21.27C242.26 21.1606 242.303 21.0493 242.346 20.936C242.393 20.8228 242.434 20.7231 242.469 20.6372L244.262 16.4302H245.733ZM249.407 16.4302C250.512 16.4302 251.319 16.6567 251.827 17.1099C252.335 17.563 252.589 18.1978 252.589 19.0142C252.589 19.3853 252.53 19.7388 252.413 20.0747C252.3 20.4067 252.112 20.7017 251.85 20.9595C251.589 21.2134 251.243 21.4146 250.813 21.563C250.387 21.7114 249.862 21.7856 249.237 21.7856H248.323V24.9966H246.917V16.4302H249.407ZM249.313 17.5962H248.323V20.6138H249.091C249.532 20.6138 249.907 20.563 250.216 20.4614C250.524 20.356 250.759 20.1899 250.919 19.9634C251.079 19.7368 251.159 19.438 251.159 19.0669C251.159 18.5708 251.009 18.2017 250.708 17.9595C250.411 17.7173 249.946 17.5962 249.313 17.5962ZM259.667 24.9966L258.829 22.6177H255.554L254.716 24.9966H253.233L256.421 16.395H257.979L261.161 24.9966H259.667ZM258.466 21.4106L257.651 19.0669C257.62 18.9653 257.575 18.8228 257.517 18.6392C257.458 18.4517 257.399 18.2622 257.341 18.0708C257.282 17.8755 257.233 17.7114 257.194 17.5786C257.155 17.7388 257.106 17.9185 257.048 18.1177C256.993 18.313 256.938 18.4966 256.884 18.6685C256.833 18.8403 256.794 18.9731 256.767 19.0669L255.946 21.4106H258.466Z" fill="#000D26"/>
<path d="M33.3891 24.6631L32.3344 21.9443H28.9008L27.852 24.6631H26.8441L30.1957 16.0615H31.0922L34.4203 24.6631H33.3891ZM32.0355 21.0596L31.0336 18.3584C31.0102 18.2881 30.9711 18.1729 30.9164 18.0127C30.8656 17.8525 30.8129 17.6865 30.7582 17.5146C30.7035 17.3428 30.6586 17.2041 30.6234 17.0986C30.5844 17.2588 30.5414 17.4189 30.4945 17.5791C30.4516 17.7354 30.4086 17.8818 30.3656 18.0186C30.3227 18.1514 30.2855 18.2646 30.2543 18.3584L29.2348 21.0596H32.0355ZM39.2719 16.8525C38.7992 16.8525 38.3734 16.9346 37.9945 17.0986C37.6195 17.2588 37.2992 17.4932 37.0336 17.8018C36.7719 18.1064 36.5707 18.4756 36.4301 18.9092C36.2895 19.3428 36.2191 19.8311 36.2191 20.374C36.2191 21.0928 36.3305 21.7178 36.5531 22.249C36.7797 22.7764 37.1156 23.1846 37.5609 23.4736C38.0102 23.7627 38.5707 23.9072 39.2426 23.9072C39.6254 23.9072 39.9848 23.876 40.3207 23.8135C40.6605 23.7471 40.9906 23.665 41.3109 23.5674V24.4346C40.9984 24.5518 40.6703 24.6377 40.3266 24.6924C39.9828 24.751 39.5746 24.7803 39.102 24.7803C38.2309 24.7803 37.5023 24.6006 36.9164 24.2412C36.3344 23.8779 35.8969 23.3662 35.6039 22.7061C35.3148 22.0459 35.1703 21.2666 35.1703 20.3682C35.1703 19.7197 35.2602 19.1279 35.4398 18.5928C35.6234 18.0537 35.8891 17.5889 36.2367 17.1982C36.5883 16.8076 37.018 16.5068 37.5258 16.2959C38.0375 16.0811 38.6234 15.9736 39.2836 15.9736C39.7172 15.9736 40.1352 16.0166 40.5375 16.1025C40.9398 16.1885 41.3031 16.3115 41.6273 16.4717L41.2289 17.3154C40.9555 17.1904 40.6547 17.083 40.3266 16.9932C40.0023 16.8994 39.6508 16.8525 39.2719 16.8525ZM43.1684 24.6631V16.0967H49.5492V24.6631H48.5648V16.9756H44.1645V24.6631H43.1684ZM51.9223 16.0967H52.8539V21.0479C52.8539 21.2354 52.852 21.4404 52.848 21.6631C52.8441 21.8818 52.8383 22.0967 52.8305 22.3076C52.8227 22.5186 52.8129 22.71 52.8012 22.8818C52.7934 23.0537 52.7855 23.1865 52.7777 23.2803H52.8246L57.5941 16.0967H58.6898V24.6631H57.7582V19.7705C57.7582 19.5635 57.7621 19.3447 57.7699 19.1143C57.7777 18.8799 57.7855 18.6533 57.7934 18.4346C57.8051 18.2158 57.8168 18.0205 57.8285 17.8486C57.8402 17.6729 57.848 17.5381 57.852 17.4443H57.7992L53.0238 24.6631H51.9223V16.0967ZM63.266 16.0967C64.3715 16.0967 65.1781 16.3135 65.6859 16.7471C66.1977 17.1768 66.4535 17.7939 66.4535 18.5986C66.4535 18.9619 66.393 19.3076 66.2719 19.6357C66.1547 19.96 65.9633 20.2471 65.6977 20.4971C65.432 20.7432 65.0824 20.9385 64.6488 21.083C64.2191 21.2236 63.6918 21.2939 63.0668 21.2939H62.0238V24.6631H61.0277V16.0967H63.266ZM63.1723 16.9463H62.0238V20.4385H62.9555C63.5023 20.4385 63.9574 20.3799 64.3207 20.2627C64.6879 20.1455 64.9633 19.9561 65.1469 19.6943C65.3305 19.4287 65.4223 19.0771 65.4223 18.6396C65.4223 18.0693 65.2406 17.6455 64.8773 17.3682C64.5141 17.0869 63.9457 16.9463 63.1723 16.9463ZM73.6195 24.6631L72.5648 21.9443H69.1312L68.0824 24.6631H67.0746L70.4262 16.0615H71.3227L74.6508 24.6631H73.6195ZM72.266 21.0596L71.2641 18.3584C71.2406 18.2881 71.2016 18.1729 71.1469 18.0127C71.0961 17.8525 71.0434 17.6865 70.9887 17.5146C70.934 17.3428 70.8891 17.2041 70.8539 17.0986C70.8148 17.2588 70.7719 17.4189 70.725 17.5791C70.682 17.7354 70.6391 17.8818 70.5961 18.0186C70.5531 18.1514 70.516 18.2646 70.4848 18.3584L69.4652 21.0596H72.266ZM82.3324 24.6631H81.3363V20.626H76.8363V24.6631H75.8402V16.0967H76.8363V19.7471H81.3363V16.0967H82.3324V24.6631ZM87.3187 24.6631H86.3168V16.9756H83.6215V16.0967H90.0023V16.9756H87.3187V24.6631ZM97.5375 16.0967L94.7484 22.3076C94.5062 22.8545 94.2602 23.3115 94.0102 23.6787C93.7602 24.0459 93.4633 24.3213 93.1195 24.5049C92.7758 24.6885 92.3402 24.7803 91.8129 24.7803C91.5863 24.7803 91.3754 24.7627 91.1801 24.7275C90.9887 24.6963 90.8168 24.6553 90.6645 24.6045V23.6143C90.8207 23.6885 90.9887 23.7471 91.1684 23.79C91.352 23.8291 91.5453 23.8486 91.7484 23.8486C92.0492 23.8486 92.307 23.8037 92.5219 23.7139C92.7367 23.6201 92.9262 23.4736 93.0902 23.2744C93.2543 23.0713 93.4105 22.8037 93.559 22.4717L90.2543 16.0967H91.3441L93.7816 20.8838C93.8129 20.9424 93.8461 21.0107 93.8812 21.0889C93.9164 21.1631 93.9516 21.2412 93.9867 21.3232C94.0219 21.4014 94.0531 21.4795 94.0805 21.5576H94.1215C94.1449 21.499 94.1703 21.4307 94.1977 21.3525C94.2289 21.2744 94.2602 21.1963 94.2914 21.1182C94.3227 21.04 94.35 20.9736 94.3734 20.9189L96.477 16.0967H97.5375ZM100.954 16.0967C102.059 16.0967 102.866 16.3135 103.373 16.7471C103.885 17.1768 104.141 17.7939 104.141 18.5986C104.141 18.9619 104.08 19.3076 103.959 19.6357C103.842 19.96 103.651 20.2471 103.385 20.4971C103.12 20.7432 102.77 20.9385 102.336 21.083C101.907 21.2236 101.379 21.2939 100.754 21.2939H99.7113V24.6631H98.7152V16.0967H100.954ZM100.86 16.9463H99.7113V20.4385H100.643C101.19 20.4385 101.645 20.3799 102.008 20.2627C102.375 20.1455 102.651 19.9561 102.834 19.6943C103.018 19.4287 103.11 19.0771 103.11 18.6396C103.11 18.0693 102.928 17.6455 102.565 17.3682C102.202 17.0869 101.633 16.9463 100.86 16.9463ZM111.307 24.6631L110.252 21.9443H106.819L105.77 24.6631H104.762L108.114 16.0615H109.01L112.338 24.6631H111.307ZM109.954 21.0596L108.952 18.3584C108.928 18.2881 108.889 18.1729 108.834 18.0127C108.784 17.8525 108.731 17.6865 108.676 17.5146C108.621 17.3428 108.577 17.2041 108.541 17.0986C108.502 17.2588 108.459 17.4189 108.412 17.5791C108.37 17.7354 108.327 17.8818 108.284 18.0186C108.241 18.1514 108.204 18.2646 108.172 18.3584L107.153 21.0596H109.954Z" fill="white"/>
<path d="M5 1H283V-1H5V1ZM287 5V35H289V5H287ZM283 39H5V41H283V39ZM1 35V5H-1V35H1ZM5 39C2.79086 39 1 37.2091 1 35H-1C-1 38.3137 1.68629 41 5 41V39ZM287 35C287 37.2091 285.209 39 283 39V41C286.314 41 289 38.3137 289 35H287ZM283 1C285.209 1 287 2.79086 287 5H289C289 1.68629 286.314 -1 283 -1V1ZM5 -1C1.68629 -1 -1 1.68629 -1 5H1C1 2.79086 2.79086 1 5 1V-1Z" fill="#E0F0FF"/>
</svg>
