<svg width="288" height="40" viewBox="0 0 288 40" fill="none" xmlns="http://www.w3.org/2000/svg">
<path d="M0 5C0 2.23858 2.23858 0 5 0H283C285.761 0 288 2.23858 288 5V35C288 37.7614 285.761 40 283 40H5C2.23857 40 0 37.7614 0 35V5Z" fill="#009FAC"/>
<path d="M173.255 24.9966L170.788 17.8423H170.735C170.747 18.0024 170.76 18.2212 170.776 18.4985C170.792 18.7759 170.805 19.0728 170.817 19.3892C170.829 19.7056 170.835 20.0083 170.835 20.2974V24.9966H169.557V16.4302H171.532L173.905 23.2681H173.94L176.395 16.4302H178.364V24.9966H177.022V20.2271C177.022 19.9653 177.026 19.6821 177.034 19.3774C177.046 19.0728 177.057 18.7837 177.069 18.5103C177.085 18.2368 177.096 18.0181 177.104 17.854H177.057L174.497 24.9966H173.255ZM185.987 24.9966L185.149 22.6177H181.874L181.036 24.9966H179.554L182.741 16.395H184.3L187.481 24.9966H185.987ZM184.786 21.4106L183.972 19.0669C183.94 18.9653 183.895 18.8228 183.837 18.6392C183.778 18.4517 183.72 18.2622 183.661 18.0708C183.602 17.8755 183.554 17.7114 183.515 17.5786C183.475 17.7388 183.427 17.9185 183.368 18.1177C183.313 18.313 183.259 18.4966 183.204 18.6685C183.153 18.8403 183.114 18.9731 183.087 19.0669L182.266 21.4106H184.786ZM193.786 16.4302V17.6255H190.077V24.9966H188.671V16.4302H193.786ZM195.228 16.4302H196.511V20.9712C196.511 21.1665 196.509 21.3813 196.505 21.6157C196.501 21.8501 196.494 22.0786 196.482 22.3013C196.474 22.5239 196.466 22.7231 196.458 22.8989C196.451 23.0708 196.443 23.1958 196.435 23.2739H196.476L200.835 16.4302H202.47V24.9966H201.199V20.4907C201.199 20.2798 201.203 20.0513 201.21 19.8052C201.218 19.5591 201.228 19.3208 201.24 19.0903C201.251 18.8599 201.263 18.6567 201.275 18.481C201.286 18.3052 201.294 18.1802 201.298 18.106H201.245L196.874 24.9966H195.228V16.4302ZM208.435 17.5024C208.025 17.5024 207.658 17.5767 207.334 17.7251C207.013 17.8735 206.742 18.0884 206.519 18.3696C206.297 18.647 206.127 18.9849 206.009 19.3833C205.892 19.7778 205.834 20.2231 205.834 20.7192C205.834 21.3833 205.927 21.9556 206.115 22.436C206.302 22.9126 206.588 23.2798 206.97 23.5376C207.353 23.7915 207.838 23.9185 208.423 23.9185C208.787 23.9185 209.14 23.8833 209.484 23.813C209.828 23.7427 210.183 23.647 210.55 23.5259V24.7212C210.203 24.8579 209.851 24.9575 209.496 25.02C209.14 25.0825 208.73 25.1138 208.265 25.1138C207.39 25.1138 206.664 24.9321 206.086 24.5688C205.511 24.2056 205.082 23.6938 204.797 23.0337C204.515 22.3735 204.375 21.6001 204.375 20.7134C204.375 20.0649 204.464 19.4712 204.644 18.9321C204.824 18.3931 205.086 17.9282 205.429 17.5376C205.773 17.1431 206.197 16.8403 206.701 16.6294C207.209 16.4146 207.789 16.3071 208.441 16.3071C208.871 16.3071 209.293 16.356 209.707 16.4536C210.125 16.5474 210.511 16.6821 210.867 16.8579L210.375 18.0181C210.078 17.8774 209.767 17.7563 209.443 17.6548C209.119 17.5532 208.783 17.5024 208.435 17.5024ZM215.42 24.9966H214.008V17.6255H211.5V16.4302H217.922V17.6255H215.42V24.9966ZM221.783 16.4302C222.889 16.4302 223.695 16.6567 224.203 17.1099C224.711 17.563 224.965 18.1978 224.965 19.0142C224.965 19.3853 224.906 19.7388 224.789 20.0747C224.676 20.4067 224.488 20.7017 224.227 20.9595C223.965 21.2134 223.619 21.4146 223.19 21.563C222.764 21.7114 222.238 21.7856 221.613 21.7856H220.699V24.9966H219.293V16.4302H221.783ZM221.69 17.5962H220.699V20.6138H221.467C221.908 20.6138 222.283 20.563 222.592 20.4614C222.901 20.356 223.135 20.1899 223.295 19.9634C223.455 19.7368 223.535 19.438 223.535 19.0669C223.535 18.5708 223.385 18.2017 223.084 17.9595C222.787 17.7173 222.322 17.5962 221.69 17.5962ZM232.043 24.9966L231.205 22.6177H227.93L227.092 24.9966H225.61L228.797 16.395H230.356L233.537 24.9966H232.043ZM230.842 21.4106L230.028 19.0669C229.996 18.9653 229.952 18.8228 229.893 18.6392C229.834 18.4517 229.776 18.2622 229.717 18.0708C229.659 17.8755 229.61 17.7114 229.571 17.5786C229.532 17.7388 229.483 17.9185 229.424 18.1177C229.37 18.313 229.315 18.4966 229.26 18.6685C229.209 18.8403 229.17 18.9731 229.143 19.0669L228.323 21.4106H230.842ZM237.698 24.9966H236.286V17.6255H233.778V16.4302H240.2V17.6255H237.698V24.9966ZM248.134 16.4302L245.409 22.5649C245.171 23.1118 244.921 23.5747 244.659 23.9536C244.401 24.3325 244.083 24.6216 243.704 24.8208C243.325 25.0161 242.835 25.1138 242.233 25.1138C242.015 25.1138 241.796 25.0981 241.577 25.0669C241.358 25.0356 241.157 24.9927 240.974 24.938V23.6606C241.149 23.7349 241.339 23.7915 241.542 23.8306C241.749 23.8657 241.954 23.8833 242.157 23.8833C242.442 23.8833 242.679 23.8384 242.866 23.7485C243.057 23.6587 243.218 23.5259 243.347 23.3501C243.479 23.1704 243.599 22.9517 243.704 22.6938L240.569 16.4302H242.075L244.097 20.6782C244.128 20.7446 244.167 20.8306 244.214 20.936C244.261 21.0376 244.306 21.1431 244.349 21.2524C244.395 21.3579 244.434 21.4556 244.466 21.5454H244.518C244.546 21.4673 244.579 21.3755 244.618 21.27C244.661 21.1606 244.704 21.0493 244.747 20.936C244.794 20.8228 244.835 20.7231 244.87 20.6372L246.663 16.4302H248.134ZM251.808 16.4302C252.913 16.4302 253.72 16.6567 254.228 17.1099C254.735 17.563 254.989 18.1978 254.989 19.0142C254.989 19.3853 254.931 19.7388 254.814 20.0747C254.7 20.4067 254.513 20.7017 254.251 20.9595C253.989 21.2134 253.644 21.4146 253.214 21.563C252.788 21.7114 252.263 21.7856 251.638 21.7856H250.724V24.9966H249.318V16.4302H251.808ZM251.714 17.5962H250.724V20.6138H251.491C251.933 20.6138 252.308 20.563 252.616 20.4614C252.925 20.356 253.159 20.1899 253.319 19.9634C253.48 19.7368 253.56 19.438 253.56 19.0669C253.56 18.5708 253.409 18.2017 253.109 17.9595C252.812 17.7173 252.347 17.5962 251.714 17.5962ZM262.068 24.9966L261.23 22.6177H257.954L257.117 24.9966H255.634L258.822 16.395H260.38L263.562 24.9966H262.068ZM260.867 21.4106L260.052 19.0669C260.021 18.9653 259.976 18.8228 259.917 18.6392C259.859 18.4517 259.8 18.2622 259.742 18.0708C259.683 17.8755 259.634 17.7114 259.595 17.5786C259.556 17.7388 259.507 17.9185 259.449 18.1177C259.394 18.313 259.339 18.4966 259.285 18.6685C259.234 18.8403 259.195 18.9731 259.167 19.0669L258.347 21.4106H260.867Z" fill="white"/>
<path d="M5 0.5H138.871C141.356 0.5 143.371 2.51472 143.371 5V35C143.371 37.4853 141.356 39.5 138.871 39.5H5C2.51472 39.5 0.5 37.4853 0.5 35V5C0.5 2.51472 2.51472 0.5 5 0.5Z" fill="#E0F0FF" stroke="#E0F0FF"/>
<path d="M34.1296 24.6633L33.2918 22.2844H30.0164L29.1785 24.6633H27.696L30.8835 16.0618H32.4421L35.6238 24.6633H34.1296ZM32.9285 21.0774L32.114 18.7336C32.0828 18.6321 32.0378 18.4895 31.9793 18.3059C31.9207 18.1184 31.8621 17.929 31.8035 17.7375C31.7449 17.5422 31.696 17.3782 31.657 17.2454C31.6179 17.4055 31.5691 17.5852 31.5105 17.7844C31.4558 17.9797 31.4011 18.1633 31.3464 18.3352C31.2957 18.5071 31.2566 18.6399 31.2293 18.7336L30.4089 21.0774H32.9285ZM40.4639 17.1692C40.0537 17.1692 39.6865 17.2434 39.3623 17.3918C39.042 17.5403 38.7705 17.7551 38.5479 18.0364C38.3252 18.3137 38.1553 18.6516 38.0381 19.05C37.9209 19.4446 37.8623 19.8899 37.8623 20.386C37.8623 21.05 37.9561 21.6223 38.1436 22.1028C38.3311 22.5793 38.6162 22.9465 38.999 23.2043C39.3818 23.4583 39.8662 23.5852 40.4522 23.5852C40.8154 23.5852 41.1689 23.55 41.5127 23.4797C41.8564 23.4094 42.2119 23.3137 42.5791 23.1926V24.3879C42.2314 24.5247 41.8799 24.6243 41.5244 24.6868C41.1689 24.7493 40.7588 24.7805 40.2939 24.7805C39.4189 24.7805 38.6924 24.5989 38.1143 24.2356C37.54 23.8723 37.1104 23.3606 36.8252 22.7004C36.5439 22.0403 36.4033 21.2668 36.4033 20.3801C36.4033 19.7317 36.4932 19.1379 36.6729 18.5989C36.8525 18.0598 37.1143 17.595 37.458 17.2043C37.8018 16.8098 38.2256 16.5071 38.7295 16.2961C39.2373 16.0813 39.8174 15.9739 40.4697 15.9739C40.8994 15.9739 41.3213 16.0227 41.7354 16.1204C42.1533 16.2141 42.54 16.3489 42.8955 16.5247L42.4033 17.6848C42.1064 17.5442 41.7959 17.4231 41.4717 17.3215C41.1475 17.22 40.8115 17.1692 40.4639 17.1692ZM44.4778 24.6633V16.0969H51.0579V24.6633H49.6633V17.2922H45.884V24.6633H44.4778ZM53.3901 16.0969H54.6733V20.6379C54.6733 20.8333 54.6714 21.0481 54.6675 21.2825C54.6636 21.5168 54.6558 21.7454 54.644 21.968C54.6362 22.1907 54.6284 22.3899 54.6206 22.5657C54.6128 22.7375 54.605 22.8625 54.5972 22.9407H54.6382L58.9976 16.0969H60.6323V24.6633H59.3608V20.1575C59.3608 19.9465 59.3647 19.718 59.3726 19.4719C59.3804 19.2258 59.3901 18.9875 59.4019 18.7571C59.4136 18.5266 59.4253 18.3235 59.437 18.1477C59.4487 17.9719 59.4565 17.8469 59.4604 17.7727H59.4077L55.0366 24.6633H53.3901V16.0969ZM65.4373 16.0969C66.5427 16.0969 67.3494 16.3235 67.8572 16.7766C68.365 17.2297 68.6189 17.8645 68.6189 18.6809C68.6189 19.052 68.5603 19.4055 68.4431 19.7415C68.3298 20.0735 68.1423 20.3684 67.8806 20.6262C67.6189 20.8801 67.2732 21.0813 66.8435 21.2297C66.4177 21.3782 65.8923 21.4524 65.2673 21.4524H64.3533V24.6633H62.947V16.0969H65.4373ZM65.3435 17.2629H64.3533V20.2805H65.1208C65.5623 20.2805 65.9373 20.2297 66.2458 20.1282C66.5544 20.0227 66.7888 19.8567 66.949 19.6301C67.1091 19.4036 67.1892 19.1047 67.1892 18.7336C67.1892 18.2375 67.0388 17.8684 66.738 17.6262C66.4412 17.384 65.9763 17.2629 65.3435 17.2629ZM75.6973 24.6633L74.8594 22.2844H71.584L70.7461 24.6633H69.2637L72.4512 16.0618H74.0098L77.1914 24.6633H75.6973ZM74.4961 21.0774L73.6816 18.7336C73.6504 18.6321 73.6055 18.4895 73.5469 18.3059C73.4883 18.1184 73.4297 17.929 73.3711 17.7375C73.3125 17.5422 73.2637 17.3782 73.2246 17.2454C73.1855 17.4055 73.1367 17.5852 73.0781 17.7844C73.0234 17.9797 72.9688 18.1633 72.9141 18.3352C72.8633 18.5071 72.8242 18.6399 72.7969 18.7336L71.9766 21.0774H74.4961ZM85.137 24.6633H83.7366V20.7961H79.7874V24.6633H78.3811V16.0969H79.7874V19.6008H83.7366V16.0969H85.137V24.6633ZM90.4341 24.6633H89.022V17.2922H86.5142V16.0969H92.936V17.2922H90.4341V24.6633ZM100.87 16.0969L98.1453 22.2317C97.907 22.7786 97.657 23.2415 97.3953 23.6204C97.1375 23.9993 96.8191 24.2883 96.4402 24.4875C96.0613 24.6829 95.571 24.7805 94.9695 24.7805C94.7507 24.7805 94.532 24.7649 94.3132 24.7336C94.0945 24.7024 93.8933 24.6594 93.7097 24.6047V23.3274C93.8855 23.4016 94.075 23.4583 94.2781 23.4973C94.4851 23.5325 94.6902 23.55 94.8933 23.55C95.1785 23.55 95.4148 23.5051 95.6023 23.4153C95.7937 23.3254 95.9539 23.1926 96.0828 23.0168C96.2156 22.8372 96.3347 22.6184 96.4402 22.3606L93.3054 16.0969H94.8113L96.8328 20.345C96.864 20.4114 96.9031 20.4973 96.95 20.6028C96.9968 20.7043 97.0417 20.8098 97.0847 20.9192C97.1316 21.0247 97.1707 21.1223 97.2019 21.2122H97.2546C97.282 21.134 97.3152 21.0422 97.3542 20.9368C97.3972 20.8274 97.4402 20.7161 97.4832 20.6028C97.53 20.4895 97.571 20.3899 97.6062 20.304L99.3992 16.0969H100.87ZM104.544 16.0969C105.649 16.0969 106.456 16.3235 106.964 16.7766C107.472 17.2297 107.726 17.8645 107.726 18.6809C107.726 19.052 107.667 19.4055 107.55 19.7415C107.437 20.0735 107.249 20.3684 106.987 20.6262C106.726 20.8801 106.38 21.0813 105.95 21.2297C105.524 21.3782 104.999 21.4524 104.374 21.4524H103.46V24.6633H102.054V16.0969H104.544ZM104.45 17.2629H103.46V20.2805H104.228C104.669 20.2805 105.044 20.2297 105.353 20.1282C105.661 20.0227 105.896 19.8567 106.056 19.6301C106.216 19.4036 106.296 19.1047 106.296 18.7336C106.296 18.2375 106.146 17.8684 105.845 17.6262C105.548 17.384 105.083 17.2629 104.45 17.2629ZM114.804 24.6633L113.966 22.2844H110.691L109.853 24.6633H108.37L111.558 16.0618H113.116L116.298 24.6633H114.804ZM113.603 21.0774L112.788 18.7336C112.757 18.6321 112.712 18.4895 112.654 18.3059C112.595 18.1184 112.536 17.929 112.478 17.7375C112.419 17.5422 112.37 17.3782 112.331 17.2454C112.292 17.4055 112.243 17.5852 112.185 17.7844C112.13 17.9797 112.075 18.1633 112.021 18.3352C111.97 18.5071 111.931 18.6399 111.904 18.7336L111.083 21.0774H113.603Z" fill="#000D26"/>
<path d="M5 1H283V-1H5V1ZM287 5V35H289V5H287ZM283 39H5V41H283V39ZM1 35V5H-1V35H1ZM5 39C2.79086 39 1 37.2091 1 35H-1C-1 38.3137 1.68629 41 5 41V39ZM287 35C287 37.2091 285.209 39 283 39V41C286.314 41 289 38.3137 289 35H287ZM283 1C285.209 1 287 2.79086 287 5H289C289 1.68629 286.314 -1 283 -1V1ZM5 -1C1.68629 -1 -1 1.68629 -1 5H1C1 2.79086 2.79086 1 5 1V-1Z" fill="#E0F0FF"/>
</svg>
