<svg width="450" height="44" viewBox="0 0 450 44" fill="none" xmlns="http://www.w3.org/2000/svg">
<path d="M0 10C0 4.47715 4.47715 0 10 0H440C445.523 0 450 4.47715 450 10V34C450 39.5228 445.523 44 440 44H10C4.47715 44 0 39.5228 0 34V10Z" fill="#009FAC"/>
<path d="M275.681 29.0962L271.366 17.7231H271.296C271.319 17.9634 271.34 18.2563 271.357 18.6021C271.375 18.9478 271.389 19.3257 271.401 19.7358C271.413 20.1401 271.419 20.5532 271.419 20.9751V29.0962H270.03V16.2466H272.245L276.314 26.9341H276.376L280.507 16.2466H282.704V29.0962H281.227V20.8696C281.227 20.4888 281.233 20.1079 281.245 19.7271C281.257 19.3403 281.271 18.9771 281.289 18.6372C281.306 18.2915 281.324 17.9927 281.342 17.7407H281.271L276.903 29.0962H275.681ZM294.379 29.0962L292.797 25.0181H287.647L286.073 29.0962H284.562L289.589 16.1938H290.934L295.926 29.0962H294.379ZM292.349 23.6909L290.846 19.6392C290.811 19.5337 290.752 19.3608 290.67 19.1206C290.594 18.8804 290.515 18.6313 290.433 18.3735C290.351 18.1157 290.283 17.9077 290.231 17.7495C290.172 17.9897 290.108 18.23 290.037 18.4702C289.973 18.7046 289.908 18.9243 289.844 19.1294C289.779 19.3286 289.724 19.4985 289.677 19.6392L288.148 23.6909H292.349ZM305.026 16.2466V17.5825H299.304V29.0962H297.81V16.2466H305.026ZM307.297 16.2466H308.694V23.6733C308.694 23.9546 308.691 24.2622 308.686 24.5962C308.68 24.9243 308.671 25.2466 308.659 25.563C308.647 25.8794 308.633 26.1665 308.615 26.4243C308.604 26.6821 308.592 26.8813 308.58 27.022H308.65L315.805 16.2466H317.448V29.0962H316.051V21.7573C316.051 21.4468 316.057 21.1187 316.068 20.7729C316.08 20.4214 316.092 20.0815 316.104 19.7534C316.121 19.4253 316.139 19.1323 316.156 18.8745C316.174 18.6108 316.186 18.4087 316.191 18.2681H316.112L308.949 29.0962H307.297V16.2466ZM326.548 17.3804C325.839 17.3804 325.201 17.5034 324.632 17.7495C324.07 17.9897 323.589 18.3413 323.191 18.8042C322.798 19.2612 322.496 19.8149 322.286 20.4653C322.075 21.1157 321.969 21.8481 321.969 22.6626C321.969 23.7407 322.136 24.6782 322.47 25.4751C322.81 26.2661 323.314 26.8784 323.982 27.312C324.656 27.7456 325.496 27.9624 326.504 27.9624C327.079 27.9624 327.618 27.9155 328.121 27.8218C328.631 27.7222 329.126 27.5991 329.607 27.4526V28.7534C329.138 28.9292 328.646 29.0581 328.13 29.1401C327.615 29.228 327.002 29.272 326.293 29.272C324.987 29.272 323.894 29.0024 323.015 28.4634C322.142 27.9185 321.486 27.1509 321.046 26.1606C320.613 25.1704 320.396 24.0015 320.396 22.6538C320.396 21.6812 320.531 20.7935 320.8 19.9907C321.076 19.1821 321.474 18.4849 321.996 17.8989C322.523 17.313 323.167 16.8618 323.929 16.5454C324.697 16.2231 325.576 16.062 326.566 16.062C327.216 16.062 327.843 16.1265 328.447 16.2554C329.05 16.3843 329.595 16.5688 330.081 16.8091L329.484 18.0747C329.074 17.8872 328.622 17.7261 328.13 17.5913C327.644 17.4507 327.117 17.3804 326.548 17.3804ZM336.439 29.0962H334.936V17.5649H330.893V16.2466H340.465V17.5649H336.439V29.0962ZM345.864 16.2466C347.523 16.2466 348.733 16.5718 349.494 17.2222C350.262 17.8667 350.646 18.7925 350.646 19.9995C350.646 20.5444 350.555 21.063 350.373 21.5552C350.197 22.0415 349.91 22.4722 349.512 22.8472C349.113 23.2163 348.589 23.5093 347.939 23.7261C347.294 23.937 346.503 24.0425 345.566 24.0425H344.001V29.0962H342.507V16.2466H345.864ZM345.724 17.521H344.001V22.7593H345.399C346.219 22.7593 346.902 22.6714 347.446 22.4956C347.997 22.3198 348.41 22.0356 348.686 21.6431C348.961 21.2446 349.099 20.7173 349.099 20.061C349.099 19.2056 348.826 18.5698 348.281 18.1538C347.737 17.7319 346.884 17.521 345.724 17.521ZM361.495 29.0962L359.913 25.0181H354.762L353.189 29.0962H351.677L356.705 16.1938H358.049L363.042 29.0962H361.495ZM359.464 23.6909L357.962 19.6392C357.926 19.5337 357.868 19.3608 357.786 19.1206C357.71 18.8804 357.63 18.6313 357.548 18.3735C357.466 18.1157 357.399 17.9077 357.346 17.7495C357.288 17.9897 357.223 18.23 357.153 18.4702C357.088 18.7046 357.024 18.9243 356.96 19.1294C356.895 19.3286 356.839 19.4985 356.793 19.6392L355.263 23.6909H359.464ZM368.872 29.0962H367.369V17.5649H363.326V16.2466H372.897V17.5649H368.872V29.0962ZM384.3 16.2466L380.117 25.563C379.753 26.3833 379.384 27.0688 379.009 27.6196C378.634 28.1704 378.189 28.5835 377.673 28.8589C377.158 29.1343 376.504 29.272 375.713 29.272C375.373 29.272 375.057 29.2456 374.764 29.1929C374.477 29.146 374.219 29.0845 373.991 29.0083V27.5229C374.225 27.6343 374.477 27.7222 374.746 27.7866C375.022 27.8452 375.312 27.8745 375.617 27.8745C376.068 27.8745 376.454 27.8071 376.777 27.6724C377.099 27.5317 377.383 27.312 377.629 27.0132C377.875 26.7085 378.11 26.3071 378.332 25.8091L373.375 16.2466H375.01L378.666 23.4272C378.713 23.5151 378.763 23.6177 378.816 23.7349C378.869 23.8462 378.921 23.9634 378.974 24.0864C379.027 24.2036 379.074 24.3208 379.115 24.438H379.176C379.211 24.3501 379.249 24.2476 379.29 24.1304C379.337 24.0132 379.384 23.896 379.431 23.7788C379.478 23.6616 379.519 23.562 379.554 23.48L382.709 16.2466H384.3ZM389.524 16.2466C391.182 16.2466 392.392 16.5718 393.154 17.2222C393.922 17.8667 394.305 18.7925 394.305 19.9995C394.305 20.5444 394.215 21.063 394.033 21.5552C393.857 22.0415 393.57 22.4722 393.172 22.8472C392.773 23.2163 392.249 23.5093 391.598 23.7261C390.954 23.937 390.163 24.0425 389.225 24.0425H387.661V29.0962H386.167V16.2466H389.524ZM389.384 17.521H387.661V22.7593H389.058C389.879 22.7593 390.561 22.6714 391.106 22.4956C391.657 22.3198 392.07 22.0356 392.346 21.6431C392.621 21.2446 392.759 20.7173 392.759 20.061C392.759 19.2056 392.486 18.5698 391.941 18.1538C391.396 17.7319 390.544 17.521 389.384 17.521ZM405.154 29.0962L403.572 25.0181H398.422L396.849 29.0962H395.337L400.364 16.1938H401.709L406.701 29.0962H405.154ZM403.124 23.6909L401.621 19.6392C401.586 19.5337 401.528 19.3608 401.445 19.1206C401.369 18.8804 401.29 18.6313 401.208 18.3735C401.126 18.1157 401.059 17.9077 401.006 17.7495C400.947 17.9897 400.883 18.23 400.813 18.4702C400.748 18.7046 400.684 18.9243 400.619 19.1294C400.555 19.3286 400.499 19.4985 400.452 19.6392L398.923 23.6909H403.124Z" fill="white"/>
<path d="M10 0.5H214.798C220.045 0.5 224.298 4.7533 224.298 10V34C224.298 39.2467 220.045 43.5 214.798 43.5H10C4.7533 43.5 0.5 39.2467 0.5 34V10C0.5 4.7533 4.75329 0.5 10 0.5Z" fill="#E0F0FF" stroke="#E0F0FF"/>
<path d="M56.1357 28.6296L54.8789 25.0613H49.9658L48.709 28.6296H46.4854L51.2666 15.7273H53.6045L58.377 28.6296H56.1357ZM54.334 23.2507L53.1123 19.7351C53.0654 19.5828 52.998 19.3689 52.9102 19.0935C52.8223 18.8123 52.7344 18.5281 52.6465 18.241C52.5586 17.948 52.4854 17.7019 52.4268 17.5027C52.3682 17.7429 52.2949 18.0125 52.207 18.3113C52.125 18.6042 52.043 18.8796 51.9609 19.1375C51.8848 19.3953 51.8262 19.5945 51.7852 19.7351L50.5547 23.2507H54.334ZM65.5488 17.3884C64.9336 17.3884 64.3828 17.4998 63.8965 17.7224C63.416 17.9451 63.0088 18.2673 62.6748 18.6892C62.3408 19.1052 62.0859 19.6121 61.9102 20.2097C61.7344 20.8015 61.6465 21.4695 61.6465 22.2136C61.6465 23.2097 61.7871 24.0681 62.0684 24.7888C62.3496 25.5037 62.7773 26.0544 63.3516 26.4412C63.9258 26.822 64.6523 27.0125 65.5312 27.0125C66.0762 27.0125 66.6064 26.9597 67.1221 26.8542C67.6377 26.7488 68.1709 26.6052 68.7217 26.4236V28.2166C68.2002 28.4216 67.6729 28.571 67.1396 28.6648C66.6064 28.7585 65.9912 28.8054 65.2939 28.8054C63.9814 28.8054 62.8916 28.533 62.0244 27.988C61.1631 27.4431 60.5186 26.6755 60.0908 25.6853C59.6689 24.6951 59.458 23.5349 59.458 22.2048C59.458 21.2322 59.5928 20.3416 59.8623 19.533C60.1318 18.7244 60.5244 18.0271 61.04 17.4412C61.5557 16.8494 62.1914 16.3953 62.9473 16.0789C63.709 15.7566 64.5791 15.5955 65.5576 15.5955C66.2021 15.5955 66.835 15.6687 67.4561 15.8152C68.083 15.9558 68.6631 16.158 69.1963 16.4216L68.458 18.1619C68.0127 17.9509 67.5469 17.7693 67.0605 17.6169C66.5742 17.4646 66.0703 17.3884 65.5488 17.3884ZM71.4814 28.6296V15.78H81.3516V28.6296H79.2598V17.573H73.5908V28.6296H71.4814ZM84.7617 15.78H86.6865V22.5916C86.6865 22.8845 86.6836 23.2068 86.6777 23.5583C86.6719 23.9099 86.6602 24.2527 86.6426 24.5867C86.6309 24.9207 86.6191 25.2195 86.6074 25.4832C86.5957 25.741 86.584 25.9285 86.5723 26.0457H86.6338L93.1729 15.78H95.625V28.6296H93.7178V21.8708C93.7178 21.5544 93.7236 21.2117 93.7354 20.8425C93.7471 20.4734 93.7617 20.116 93.7793 19.7703C93.7969 19.4246 93.8145 19.1199 93.832 18.8562C93.8496 18.5925 93.8613 18.405 93.8672 18.2937H93.7881L87.2314 28.6296H84.7617V15.78ZM102.744 15.78C104.402 15.78 105.612 16.1199 106.374 16.7996C107.136 17.4792 107.517 18.4314 107.517 19.656C107.517 20.2126 107.429 20.7429 107.253 21.2468C107.083 21.7449 106.802 22.1873 106.409 22.574C106.017 22.9548 105.498 23.2566 104.854 23.4792C104.215 23.7019 103.427 23.8132 102.489 23.8132H101.118V28.6296H99.0088V15.78H102.744ZM102.604 17.5291H101.118V22.0554H102.27C102.932 22.0554 103.494 21.9792 103.957 21.8269C104.42 21.6687 104.771 21.4197 105.012 21.0798C105.252 20.74 105.372 20.2917 105.372 19.7351C105.372 18.991 105.146 18.4373 104.695 18.074C104.25 17.7107 103.553 17.5291 102.604 17.5291ZM118.046 28.6296L116.789 25.0613H111.876L110.619 28.6296H108.396L113.177 15.7273H115.515L120.287 28.6296H118.046ZM116.244 23.2507L115.022 19.7351C114.976 19.5828 114.908 19.3689 114.82 19.0935C114.732 18.8123 114.645 18.5281 114.557 18.241C114.469 17.948 114.396 17.7019 114.337 17.5027C114.278 17.7429 114.205 18.0125 114.117 18.3113C114.035 18.6042 113.953 18.8796 113.871 19.1375C113.795 19.3953 113.736 19.5945 113.695 19.7351L112.465 23.2507H116.244ZM132.117 28.6296H130.017V22.8289H124.093V28.6296H121.983V15.78H124.093V21.0359H130.017V15.78H132.117V28.6296ZM139.975 28.6296H137.856V17.573H134.095V15.78H143.728V17.573H139.975V28.6296ZM155.54 15.78L151.453 24.9822C151.096 25.8025 150.721 26.4968 150.328 27.0652C149.941 27.6335 149.464 28.0671 148.896 28.366C148.327 28.6589 147.592 28.8054 146.689 28.8054C146.361 28.8054 146.033 28.782 145.705 28.7351C145.377 28.6882 145.075 28.6238 144.8 28.5417V26.6257C145.063 26.7371 145.348 26.822 145.652 26.8806C145.963 26.9333 146.271 26.9597 146.575 26.9597C147.003 26.9597 147.357 26.8923 147.639 26.7576C147.926 26.6228 148.166 26.4236 148.359 26.1599C148.559 25.8904 148.737 25.5623 148.896 25.1755L144.193 15.78H146.452L149.484 22.1521C149.531 22.2517 149.59 22.3806 149.66 22.5388C149.73 22.6912 149.798 22.8494 149.862 23.0134C149.933 23.1716 149.991 23.3181 150.038 23.4529H150.117C150.158 23.3357 150.208 23.198 150.267 23.0398C150.331 22.8757 150.396 22.7087 150.46 22.5388C150.53 22.3689 150.592 22.2195 150.645 22.0906L153.334 15.78H155.54ZM160.963 15.78C162.621 15.78 163.831 16.1199 164.593 16.7996C165.354 17.4792 165.735 18.4314 165.735 19.656C165.735 20.2126 165.647 20.7429 165.472 21.2468C165.302 21.7449 165.021 22.1873 164.628 22.574C164.235 22.9548 163.717 23.2566 163.072 23.4792C162.434 23.7019 161.646 23.8132 160.708 23.8132H159.337V28.6296H157.228V15.78H160.963ZM160.822 17.5291H159.337V22.0554H160.488C161.15 22.0554 161.713 21.9792 162.176 21.8269C162.639 21.6687 162.99 21.4197 163.23 21.0798C163.471 20.74 163.591 20.2917 163.591 19.7351C163.591 18.991 163.365 18.4373 162.914 18.074C162.469 17.7107 161.771 17.5291 160.822 17.5291ZM176.265 28.6296L175.008 25.0613H170.095L168.838 28.6296H166.614L171.396 15.7273H173.733L178.506 28.6296H176.265ZM174.463 23.2507L173.241 19.7351C173.194 19.5828 173.127 19.3689 173.039 19.0935C172.951 18.8123 172.863 18.5281 172.775 18.241C172.688 17.948 172.614 17.7019 172.556 17.5027C172.497 17.7429 172.424 18.0125 172.336 18.3113C172.254 18.6042 172.172 18.8796 172.09 19.1375C172.014 19.3953 171.955 19.5945 171.914 19.7351L170.684 23.2507H174.463Z" fill="#000D26"/>
<path d="M10 1H440V-1H10V1ZM449 10V34H451V10H449ZM440 43H10V45H440V43ZM1 34V10H-1V34H1ZM10 43C5.02944 43 1 38.9706 1 34H-1C-1 40.0751 3.92487 45 10 45V43ZM449 34C449 38.9706 444.971 43 440 43V45C446.075 45 451 40.0751 451 34H449ZM440 1C444.971 1 449 5.02944 449 10H451C451 3.92487 446.075 -1 440 -1V1ZM10 -1C3.92487 -1 -1 3.92487 -1 10H1C1 5.02944 5.02944 1 10 1V-1Z" fill="#E0F0FF"/>
</svg>
