<svg width="540" height="60" viewBox="0 0 540 60" fill="none" xmlns="http://www.w3.org/2000/svg">
<path d="M0 10C0 4.47715 4.47715 0 10 0H530C535.523 0 540 4.47715 540 10V50C540 55.5228 535.523 60 530 60H9.99999C4.47715 60 0 55.5228 0 50V10Z" fill="#009FAC"/>
<path d="M261.5 10C261.5 4.7533 265.753 0.5 271 0.5H530C535.247 0.5 539.5 4.75329 539.5 10V50C539.5 55.2467 535.247 59.5 530 59.5H271C265.753 59.5 261.5 55.2467 261.5 50V10Z" fill="#E0F0FF" stroke="#E0F0FF"/>
<path d="M336.894 37.4949L333.167 26.7634H333.097C333.196 28.3572 333.246 29.8513 333.246 31.2458V37.4949H331.339V24.6453H334.301L337.869 34.8669H337.922L341.596 24.6453H344.566V37.4949H342.545V31.1404C342.545 30.5017 342.56 29.6697 342.589 28.6443C342.624 27.6189 342.653 26.9978 342.677 26.781H342.606L338.748 37.4949H336.894ZM355.922 37.4949L354.639 33.9265H349.726L348.469 37.4949H346.254L351.062 24.5925H353.347L358.154 37.4949H355.922ZM354.085 32.116L352.881 28.6179C352.793 28.3835 352.67 28.0144 352.512 27.5105C352.359 27.0066 352.254 26.6375 352.195 26.4031C352.037 27.1238 351.806 27.9119 351.501 28.7673L350.341 32.116H354.085ZM367.479 24.6453V26.447H361.951V37.4949H359.851V24.6453H367.479ZM369.571 24.6453H371.496V31.325C371.496 32.0222 371.479 32.7283 371.443 33.4431C371.408 34.1521 371.382 34.6326 371.364 34.8845H371.443L378.009 24.6453H380.461V37.4949H378.527V30.8679C378.527 29.8542 378.583 28.6238 378.694 27.1765H378.624L372.032 37.4949H369.571V24.6453ZM389.294 26.2625C388.087 26.2625 387.138 26.6902 386.446 27.5457C385.755 28.4011 385.409 29.5818 385.409 31.0876C385.409 32.6638 385.74 33.8562 386.402 34.6648C387.07 35.4734 388.034 35.8777 389.294 35.8777C389.839 35.8777 390.366 35.825 390.876 35.7195C391.386 35.6082 391.916 35.4675 392.467 35.2976V37.0994C391.459 37.4802 390.316 37.6707 389.039 37.6707C387.158 37.6707 385.714 37.1023 384.706 35.9656C383.698 34.823 383.194 33.1912 383.194 31.0701C383.194 29.7341 383.438 28.5652 383.924 27.5632C384.416 26.5613 385.125 25.7937 386.051 25.2605C386.977 24.7273 388.063 24.4607 389.312 24.4607C390.624 24.4607 391.837 24.7361 392.95 25.2869L392.194 27.0359C391.761 26.8308 391.301 26.6521 390.814 26.4998C390.334 26.3416 389.827 26.2625 389.294 26.2625ZM399.674 37.4949H397.573V26.447H393.794V24.6453H403.453V26.447H399.674V37.4949ZM413.938 28.53C413.938 29.8718 413.499 30.9001 412.62 31.615C411.741 32.3298 410.49 32.6873 408.867 32.6873H407.531V37.4949H405.431V24.6453H409.131C410.736 24.6453 411.938 24.9734 412.734 25.6296C413.537 26.2859 413.938 27.2527 413.938 28.53ZM407.531 30.9207H408.647C409.726 30.9207 410.517 30.7332 411.021 30.3582C411.524 29.9832 411.776 29.3972 411.776 28.6003C411.776 27.8621 411.551 27.3113 411.1 26.948C410.648 26.5847 409.945 26.4031 408.99 26.4031H407.531V30.9207ZM424.477 37.4949L423.193 33.9265H418.28L417.023 37.4949H414.809L419.616 24.5925H421.901L426.709 37.4949H424.477ZM422.64 32.116L421.436 28.6179C421.348 28.3835 421.225 28.0144 421.066 27.5105C420.914 27.0066 420.809 26.6375 420.75 26.4031C420.592 27.1238 420.36 27.9119 420.056 28.7673L418.896 32.116H422.64ZM432.844 37.4949H430.743V26.447H426.964V24.6453H436.623V26.447H432.844V37.4949ZM448.374 24.6453L444.322 33.7859C443.824 34.905 443.367 35.7166 442.951 36.2205C442.535 36.7185 442.052 37.0847 441.501 37.3191C440.956 37.5535 440.294 37.6707 439.515 37.6707C438.835 37.6707 438.205 37.5828 437.625 37.407V35.5173C438.199 35.7458 438.8 35.8601 439.427 35.8601C439.96 35.8601 440.405 35.7312 440.763 35.4734C441.126 35.2097 441.454 34.738 441.747 34.0583L437.01 24.6453H439.277L442.415 31.0876C442.696 31.697 442.869 32.1042 442.934 32.3093H443.021C443.057 32.157 443.145 31.9138 443.285 31.5798L446.177 24.6453H448.374ZM458.587 28.53C458.587 29.8718 458.147 30.9001 457.269 31.615C456.39 32.3298 455.139 32.6873 453.516 32.6873H452.18V37.4949H450.079V24.6453H453.779C455.385 24.6453 456.586 24.9734 457.383 25.6296C458.186 26.2859 458.587 27.2527 458.587 28.53ZM452.18 30.9207H453.296C454.374 30.9207 455.165 30.7332 455.669 30.3582C456.173 29.9832 456.425 29.3972 456.425 28.6003C456.425 27.8621 456.199 27.3113 455.748 26.948C455.297 26.5847 454.594 26.4031 453.639 26.4031H452.18V30.9207ZM469.125 37.4949L467.842 33.9265H462.929L461.672 37.4949H459.457L464.265 24.5925H466.55L471.357 37.4949H469.125ZM467.288 32.116L466.084 28.6179C465.996 28.3835 465.873 28.0144 465.715 27.5105C465.562 27.0066 465.457 26.6375 465.398 26.4031C465.24 27.1238 465.009 27.9119 464.704 28.7673L463.544 32.116H467.288Z" fill="#000D26"/>
<path d="M75.5869 36.4949L73.9873 32.408H68.8369L67.2549 36.4949H65.7432L70.8232 23.5925H72.0801L77.1338 36.4949H75.5869ZM73.5215 31.0632L72.0273 27.0818C71.834 26.5779 71.6348 25.9597 71.4297 25.2273C71.3008 25.7898 71.1162 26.408 70.876 27.0818L69.3643 31.0632H73.5215ZM84.5023 24.7966C83.0902 24.7966 81.974 25.2683 81.1537 26.2117C80.3393 27.1492 79.932 28.4353 79.932 30.0701C79.932 31.7517 80.3246 33.0525 81.1098 33.9724C81.9008 34.8865 83.0258 35.3435 84.4848 35.3435C85.3812 35.3435 86.4037 35.1824 87.5521 34.8601V36.1697C86.6615 36.5037 85.5629 36.6707 84.2562 36.6707C82.3637 36.6707 80.9018 36.0964 79.8705 34.948C78.8451 33.7996 78.3324 32.1677 78.3324 30.0525C78.3324 28.7283 78.5785 27.5681 79.0707 26.572C79.5687 25.5759 80.2836 24.8083 81.2152 24.2693C82.1527 23.7302 83.2543 23.4607 84.5199 23.4607C85.8676 23.4607 87.0453 23.7068 88.0531 24.199L87.4203 25.4822C86.4477 25.0251 85.475 24.7966 84.5023 24.7966ZM100.045 36.4949H98.5506V24.9724H91.95V36.4949H90.4559V23.6453H100.045V36.4949ZM103.704 23.6453H105.102V30.7908C105.102 32.1091 105.061 33.3015 104.979 34.3679H105.049L112.256 23.6453H113.891V36.4949H112.485V29.4197C112.485 28.2419 112.534 27.0056 112.634 25.7107H112.555L105.339 36.4949H103.704V23.6453ZM125.663 27.3894C125.663 28.6902 125.217 29.6921 124.327 30.3953C123.442 31.0925 122.173 31.4412 120.521 31.4412H119.009V36.4949H117.515V23.6453H120.846C124.057 23.6453 125.663 24.8933 125.663 27.3894ZM119.009 30.158H120.354C121.678 30.158 122.636 29.9441 123.228 29.5164C123.82 29.0886 124.116 28.4031 124.116 27.4597C124.116 26.6101 123.838 25.9773 123.281 25.5613C122.724 25.1453 121.857 24.9373 120.679 24.9373H119.009V30.158ZM136.538 36.4949L134.938 32.408H129.788L128.206 36.4949H126.694L131.774 23.5925H133.031L138.085 36.4949H136.538ZM134.473 31.0632L132.979 27.0818C132.785 26.5779 132.586 25.9597 132.381 25.2273C132.252 25.7898 132.067 26.408 131.827 27.0818L130.315 31.0632H134.473ZM149.707 36.4949H148.213V30.448H141.446V36.4949H139.952V23.6453H141.446V29.1121H148.213V23.6453H149.707V36.4949ZM157.296 36.4949H155.802V24.9724H151.732V23.6453H161.365V24.9724H157.296V36.4949ZM164.216 36.6707C163.566 36.6707 162.994 36.5828 162.502 36.407V34.948C163.047 35.2 163.601 35.3259 164.163 35.3259C164.808 35.3259 165.323 35.1794 165.71 34.8865C166.103 34.5876 166.492 34.031 166.879 33.2166L161.878 23.6453H163.53L167.327 30.949C167.474 31.2361 167.588 31.5173 167.67 31.7927H167.74C167.904 31.3005 168.019 30.99 168.083 30.8611L171.238 23.6453H172.821L168.716 32.8386C168.224 33.9343 167.779 34.7312 167.38 35.2292C166.988 35.7273 166.542 36.0935 166.044 36.3279C165.552 36.5564 164.943 36.6707 164.216 36.6707ZM182.835 27.3894C182.835 28.6902 182.389 29.6921 181.499 30.3953C180.614 31.0925 179.345 31.4412 177.693 31.4412H176.181V36.4949H174.687V23.6453H178.018C181.229 23.6453 182.835 24.8933 182.835 27.3894ZM176.181 30.158H177.526C178.85 30.158 179.808 29.9441 180.4 29.5164C180.992 29.0886 181.288 28.4031 181.288 27.4597C181.288 26.6101 181.009 25.9773 180.453 25.5613C179.896 25.1453 179.029 24.9373 177.851 24.9373H176.181V30.158ZM193.71 36.4949L192.11 32.408H186.96L185.378 36.4949H183.866L188.946 23.5925H190.203L195.257 36.4949H193.71ZM191.645 31.0632L190.15 27.0818C189.957 26.5779 189.758 25.9597 189.553 25.2273C189.424 25.7898 189.239 26.408 188.999 27.0818L187.487 31.0632H191.645Z" fill="white"/>
<path d="M10 1H530V-1H10V1ZM539 10V50H541V10H539ZM530 59H9.99999V61H530V59ZM1 50V10H-1V50H1ZM9.99999 59C5.02943 59 1 54.9706 1 50H-1C-1 56.0751 3.92486 61 9.99999 61V59ZM539 50C539 54.9706 534.971 59 530 59V61C536.075 61 541 56.0751 541 50H539ZM530 1C534.971 1 539 5.02944 539 10H541C541 3.92487 536.075 -1 530 -1V1ZM10 -1C3.92487 -1 -1 3.92487 -1 10H1C1 5.02944 5.02944 1 10 1V-1Z" fill="#E0F0FF"/>
</svg>
