<svg width="21" height="21" viewBox="0 0 21 21" fill="none" xmlns="http://www.w3.org/2000/svg">
<path d="M9.13799 0.00927734C9.84515 0.00927734 10.2482 0.713793 10.2482 1.42131V5.75749H9.35304C9.17894 5.32691 8.86059 4.97031 8.45253 4.74881C8.04448 4.52731 7.57213 4.4547 7.11643 4.54342C6.66074 4.63215 6.25007 4.87668 5.95481 5.23511C5.65955 5.59354 5.49809 6.04356 5.49809 6.50804C5.49809 6.97251 5.65955 7.42253 5.95481 7.78096C6.25007 8.13939 6.66074 8.38393 7.11643 8.47265C7.57213 8.56137 8.04448 8.48876 8.45253 8.26726C8.86059 8.04576 9.17894 7.68917 9.35304 7.25859H10.2482V18.1646C10.2482 18.761 9.99619 19.3544 9.46506 19.6256C8.98345 19.878 8.44837 20.0112 7.9047 20.0139C6.39435 20.0139 5.27109 19.2494 4.54792 18.3447C4.04709 17.7204 3.69785 16.9884 3.52768 16.2061C3.06059 16.0682 2.62799 15.8329 2.25839 15.5156C1.54822 14.9042 0.996094 13.9235 0.996094 12.4784C0.996094 11.7229 1.05011 11.0644 1.18614 10.511H5.39712C6.07527 10.511 6.6374 11.0113 6.73243 11.6628C6.30375 11.8402 5.95003 12.1612 5.73182 12.5708C5.5136 12.9804 5.44446 13.4532 5.53623 13.9082C5.628 14.3631 5.87496 14.7721 6.23486 15.0649C6.59475 15.3578 7.04521 15.5165 7.50912 15.5137C7.97303 15.5109 8.42155 15.3469 8.77793 15.0498C9.1343 14.7526 9.37637 14.3407 9.46269 13.8847C9.54902 13.4287 9.47424 12.9568 9.25116 12.5498C9.02807 12.1428 8.67055 11.8261 8.23978 11.6538C8.18723 10.9354 7.86494 10.2635 7.33764 9.77307C6.81033 9.28262 6.11708 9.00997 5.39712 9.00987H2.03634C2.18612 8.88601 2.35285 8.78424 2.53145 8.70765C2.42835 8.33994 2.36859 7.96142 2.35341 7.57982C2.3204 6.84428 2.43043 6.07872 2.64848 5.39722C2.86453 4.72673 3.20661 4.07325 3.68672 3.62192C3.98789 3.32831 4.36944 3.13082 4.78297 3.05451C4.98202 2.21389 5.48914 1.51938 6.13629 1.01601C6.96748 0.36754 8.05673 0.00927734 9.13699 0.00927734H9.13799ZM11.7486 15.0143H13.399C14.155 15.0143 14.8801 14.7138 15.4147 14.1789C15.9493 13.644 16.2496 12.9186 16.2496 12.1622V10.3659C16.68 10.1917 17.0364 9.87317 17.2578 9.46491C17.4792 9.05665 17.5518 8.58406 17.4631 8.12814C17.3744 7.67221 17.13 7.26134 16.7718 6.96594C16.4135 6.67053 15.9637 6.50899 15.4995 6.50899C15.0352 6.50899 14.5854 6.67053 14.2272 6.96594C13.8689 7.26134 13.6245 7.67221 13.5358 8.12814C13.4472 8.58406 13.5197 9.05665 13.7411 9.46491C13.9625 9.87317 14.3189 10.1917 14.7493 10.3659V12.1622C14.7493 12.5205 14.607 12.8641 14.3538 13.1175C14.1006 13.3708 13.7571 13.5132 13.399 13.5132H11.7486V6.51504V6.50804V1.42131C11.7486 0.713793 12.1517 0.00927734 12.8589 0.00927734C13.9411 0.00927734 15.0294 0.36754 15.8605 1.01601C16.5077 1.51938 17.0148 2.21489 17.2139 3.05451C17.634 3.12456 18.008 3.33872 18.3101 3.62192C18.7902 4.07325 19.1323 4.72573 19.3484 5.39722C19.5664 6.07872 19.6764 6.84428 19.6434 7.57982C19.6264 7.9561 19.5714 8.34038 19.4654 8.70765L19.5314 8.73767C19.9015 8.9118 20.2016 9.185 20.4256 9.54826C20.8507 10.2338 21.0007 11.2205 21.0007 12.4784C21.0007 13.9245 20.4486 14.9062 19.7385 15.5156C19.3685 15.833 18.9356 16.0684 18.4682 16.2061C18.2982 16.9883 17.9494 17.7203 17.4489 18.3447C16.7257 19.2494 15.6025 20.0139 14.0911 20.0139C13.5476 20.0115 13.0125 19.8787 12.5308 19.6266C12.0007 19.3544 11.7486 18.761 11.7486 18.1646V15.0143ZM6.99749 6.50804C6.99749 6.37533 7.05018 6.24806 7.14397 6.15422C7.23776 6.06039 7.36497 6.00767 7.4976 6.00767C7.63024 6.00767 7.75745 6.06039 7.85124 6.15422C7.94503 6.24806 7.99772 6.37533 7.99772 6.50804C7.99772 6.64074 7.94503 6.76801 7.85124 6.86185C7.75745 6.95569 7.63024 7.0084 7.4976 7.0084C7.36497 7.0084 7.23776 6.95569 7.14397 6.86185C7.05018 6.76801 6.99749 6.64074 6.99749 6.50804ZM7.4976 13.0128C7.36497 13.0128 7.23776 13.0655 7.14397 13.1594C7.05018 13.2532 6.99749 13.3805 6.99749 13.5132C6.99749 13.6459 7.05018 13.7731 7.14397 13.867C7.23776 13.9608 7.36497 14.0135 7.4976 14.0135C7.63024 14.0135 7.75745 13.9608 7.85124 13.867C7.94503 13.7731 7.99772 13.6459 7.99772 13.5132C7.99772 13.3805 7.94503 13.2532 7.85124 13.1594C7.75745 13.0655 7.63024 13.0128 7.4976 13.0128ZM14.9993 8.5095C14.9993 8.64221 15.052 8.76948 15.1458 8.86331C15.2396 8.95715 15.3668 9.00987 15.4995 9.00987C15.6321 9.00987 15.7593 8.95715 15.8531 8.86331C15.9469 8.76948 15.9996 8.64221 15.9996 8.5095C15.9996 8.3768 15.9469 8.24953 15.8531 8.15569C15.7593 8.06185 15.6321 8.00914 15.4995 8.00914C15.3668 8.00914 15.2396 8.06185 15.1458 8.15569C15.052 8.24953 14.9993 8.3768 14.9993 8.5095Z" fill="#009FAC"/>
</svg>
