<svg width="113" height="48" viewBox="0 0 113 48" fill="none" xmlns="http://www.w3.org/2000/svg">
<path fill-rule="evenodd" clip-rule="evenodd" d="M25.9667 0.581502C23.2224 4.38073 21.6785 8.23573 21.166 12.5691C20.9671 14.2498 21.0755 17.909 21.3685 19.4075C22.0299 22.7891 23.4704 26.2348 25.37 28.9789C26.3625 30.4126 26.3591 30.4114 26.9988 29.5703C30.1183 25.4695 32.0088 19.4272 31.7628 14.343C31.5211 9.34735 29.8908 4.82104 26.8027 0.572227L26.3869 0L25.9667 0.581502ZM27.8509 4.82421C29.7057 8.39694 30.5506 11.815 30.5506 15.7464C30.5506 17.1618 30.2287 20.4613 30.0778 20.5931C30.0502 20.6171 29.984 19.9071 29.9308 19.0153C29.7501 15.9889 29.209 13.5115 28.1768 10.983C27.5923 9.55152 26.5083 7.44798 26.3549 7.44798C26.2002 7.44798 25.1737 9.45243 24.6364 10.804C23.517 13.6193 23.0304 15.759 22.9159 18.3702C22.8258 20.4221 22.721 20.9571 22.5693 20.1397C22.5132 19.8377 22.3904 18.6508 22.2966 17.502C22.0032 13.9122 22.4955 10.6785 23.8605 7.23052C24.518 5.56948 25.6751 3.23713 26.1672 2.58131L26.3849 2.29098L26.8011 2.94742C27.0301 3.3084 27.5025 4.15301 27.8509 4.82421ZM35.8652 22.9466V31.245H37.6135H39.3617V23.9839V16.7227H41.04H42.7183V15.6854V14.6481H39.2918H35.8652V22.9466ZM44.8162 14.8203C44.8162 14.915 44.4996 17.7294 44.1127 21.0747C43.2162 28.8252 42.999 30.7666 42.9985 31.0315C42.998 31.2233 43.1734 31.245 44.7273 31.245H46.4563L46.5499 29.9331C46.6014 29.2115 46.6815 28.2232 46.7281 27.7365L46.8128 26.8517H47.6867H48.5606L48.6415 27.3704C48.686 27.6556 48.7646 28.6442 48.816 29.567L48.9099 31.245H50.7003H52.4908L52.4251 30.8484C52.3889 30.6302 51.9847 27.1568 51.5268 23.1296C51.0689 19.1024 50.6559 15.5467 50.6092 15.2278L50.5241 14.6481H47.6702C45.3067 14.6481 44.8162 14.6776 44.8162 14.8203ZM56.145 14.775C55.3867 14.9134 54.9108 15.2046 54.5364 15.7592C54.2954 16.1162 54.2501 16.4398 54.2094 18.0956L54.1621 20.0177H55.9227H57.6832L57.6853 18.7058C57.6874 17.3295 57.8443 16.8188 58.2878 16.7442C58.8789 16.645 58.9419 16.8798 58.9419 19.1783C58.9419 21.8923 58.9707 21.8482 57.1937 21.8482H56.0049V22.7635V23.6788H57.0631C58.0769 23.6788 58.6135 23.8045 58.8349 24.0937C58.8914 24.1675 58.9386 25.274 58.9398 26.5527C58.9421 29.0159 58.9032 29.1704 58.2811 29.1704C57.8 29.1704 57.6832 28.7518 57.6832 27.0268V25.5093H55.9236H54.1641L54.2105 27.6755C54.2621 30.0793 54.3521 30.3729 55.1986 30.8998C55.6299 31.1683 55.7958 31.1861 58.1965 31.222C60.5412 31.257 60.7818 31.2404 61.3065 31.0068C61.6823 30.8395 61.9826 30.5782 62.1918 30.2366C62.4896 29.7502 62.5107 29.5568 62.5482 26.9738C62.5834 24.5354 62.5599 24.1804 62.3384 23.8033C62.0225 23.2657 61.2739 22.8245 60.6777 22.8245C60.0179 22.8245 59.9616 22.6166 60.5965 22.523C61.4054 22.4037 62.0023 22.0282 62.3036 21.4491C62.5343 21.0057 62.5724 20.6407 62.5743 18.8584C62.5785 15.1377 62.2218 14.751 58.7321 14.6929C57.6552 14.6748 56.4911 14.7118 56.145 14.775ZM65.0957 22.9466V31.245H66.9139H68.732V23.9839V16.7227H69.3614H69.9908V23.9839V31.245H71.739H73.4872V22.9466V14.6481H69.2915H65.0957V22.9466ZM76.1096 14.7178C76.0518 14.7689 76.0047 18.5085 76.0047 23.028V31.245H77.8229H79.641V28.4382V25.6314H81.0799C82.9453 25.6314 83.5941 25.3836 84.1165 24.472C84.4653 23.8632 84.4661 23.8537 84.4661 20.3228C84.4661 18.3763 84.4165 16.5795 84.3557 16.3296C84.2253 15.7937 83.6973 15.2086 83.0859 14.9227C82.7221 14.7526 82.1039 14.71 79.4312 14.6713C77.662 14.6457 76.1674 14.6667 76.1096 14.7178ZM89.0118 14.7743C88.1858 14.9259 87.7521 15.2153 87.3682 15.8709L87.0535 16.4084V23.0076V29.6068L87.3682 30.1443C87.9429 31.1257 88.1202 31.1786 90.9743 31.2222C93.2062 31.2562 93.5434 31.2346 94.0907 31.0234C94.5761 30.8361 94.7743 30.6624 95.0397 30.1921L95.3751 29.5975V22.9466V16.2956L95.0586 15.7785C94.5365 14.926 93.9441 14.7406 91.5989 14.6961C90.522 14.6756 89.3578 14.7108 89.0118 14.7743ZM97.9625 22.9436V31.245H99.7807H101.599L101.603 26.028C101.607 21.2118 101.689 20.1795 101.939 21.7872C101.991 22.1228 102.376 24.27 102.795 26.5587C103.214 28.8474 103.557 30.8382 103.557 30.9825C103.557 31.2345 103.616 31.245 105.023 31.245C106.429 31.245 106.492 31.2338 106.56 30.9704C106.657 30.5953 107.059 28.4068 107.767 24.411C108.093 22.5652 108.413 21.0028 108.476 20.9391C108.54 20.8754 108.592 23.1681 108.592 26.0341V31.245H110.41H112.228V22.9466V14.6481H109.929C108.664 14.6481 107.6 14.6894 107.565 14.7396C107.529 14.7899 107.207 16.259 106.85 18.0041C106.492 19.7492 106.049 21.891 105.866 22.7635C105.682 23.6361 105.453 24.7756 105.357 25.2958C105.26 25.8159 105.14 26.2415 105.09 26.2415C105.041 26.2415 104.921 25.8435 104.824 25.3568C104.728 24.8701 104.502 23.7581 104.322 22.8855C104.143 22.013 103.768 20.1733 103.49 18.7973C103.212 17.4214 102.906 15.9386 102.811 15.5024L102.637 14.7091L100.3 14.6757L97.9625 14.6423V22.9436ZM17.6137 14.8987C8.9707 15.673 2.11259 21.3014 0.685052 28.7921C0.396943 30.3034 0.471068 33.4497 0.827707 34.8451C2.55636 41.6106 8.48469 46.5786 16.285 47.7984C18.0229 48.0701 20.9514 48.0667 22.7185 47.7909C26.2943 47.2327 29.7443 45.7507 32.2826 43.6823L33.3478 42.8143V37.1517V31.4891H26.4248H19.5018V34.0054V36.5215L19.9937 36.1942C22.6148 34.4497 26.4659 35.1658 28.0039 37.6835C29.2691 39.7547 28.7925 41.8456 26.6588 43.5843C24.7837 45.1123 22.1338 46.0122 19.5144 46.0105C11.1051 46.0052 5.985 38.0988 10.2914 31.7687C10.969 30.7727 12.3985 29.4917 13.601 28.8028C14.7744 28.1308 16.5324 27.5311 17.6836 27.4104C18.1067 27.366 18.6905 27.2995 18.9808 27.2625L19.5088 27.1954L19.4703 21.0133L19.4319 14.8312L19.0822 14.8148C18.8899 14.8058 18.2291 14.8435 17.6137 14.8987ZM47.9598 18.1567C48.0116 18.9454 48.1432 20.6614 48.2523 21.9703C48.3613 23.2791 48.451 24.5284 48.4516 24.7466L48.4525 25.1432H47.6721H46.8918L46.9714 24.3805C47.0152 23.9611 47.1492 22.1899 47.2692 20.4448C47.3892 18.6997 47.5169 17.1484 47.5531 16.9973C47.7074 16.3519 47.872 16.8211 47.9598 18.1567ZM80.682 16.994C80.8652 17.2221 80.8997 17.7555 80.8997 20.35C80.8997 23.3027 80.8874 23.4455 80.6115 23.6862C80.4508 23.8264 80.1876 23.921 80.0171 23.8998C79.7111 23.8618 79.7109 23.86 79.6739 20.2923L79.6368 16.7227H80.0505C80.3196 16.7227 80.5405 16.8175 80.682 16.994ZM91.6409 16.8692C91.8827 17.0802 91.8827 28.813 91.6409 29.024C91.384 29.2481 90.8566 29.1982 90.6947 28.9344C90.6008 28.7811 90.55 26.6643 90.55 22.9023C90.55 17.7959 90.5761 17.0835 90.7697 16.9144C91.0315 16.6861 91.4086 16.6665 91.6409 16.8692ZM26.9894 19.3466C28.3364 22.4694 28.1692 26.3743 26.5747 29.0297L26.3893 29.3385L26.1449 28.926C24.9641 26.9336 24.5188 23.7934 25.0803 21.4195C25.3297 20.3648 25.9554 18.7877 26.2558 18.4566C26.4564 18.2355 26.5688 18.3719 26.9894 19.3466ZM35.7254 42.2893V47.964H74.1166H112.508V42.2893V36.6146H74.1166H35.7254V42.2893ZM40.7301 40.0621L40.7698 41.374H41.7441H42.7183V40.0316V38.6892H43.4875H44.2568V42.2283V45.7673H43.4875H42.7183V44.1808V42.5944H41.7393H40.7603V44.1808V45.7673H39.9212H39.082V42.2222V38.677L39.8862 38.7136L40.6904 38.7502L40.7301 40.0621ZM59.5014 39.2994V39.9096H58.1028H56.7042V40.6418V41.374H57.9629H59.2216V41.9842V42.5944H57.9629H56.7042V43.6317V44.669H58.1028H59.5014V45.2182V45.7673H57.3336H55.1657V42.2283V38.6892H57.3336H59.5014V39.2994ZM74.7198 39.1469C74.7608 39.5169 74.7988 39.5435 75.2869 39.5435C75.6234 39.5435 76.0373 39.6692 76.4466 39.8958C77.3106 40.3738 77.7082 41.0963 77.7143 42.1993C77.7236 43.8427 76.7476 44.9131 75.2399 44.9131C74.7686 44.9131 74.746 44.9327 74.746 45.3402V45.7673H73.9068H73.0677V45.3402C73.0677 44.9205 73.0576 44.9131 72.4856 44.9131C71.6884 44.9131 70.8435 44.4586 70.4088 43.7962C69.9445 43.0884 69.9095 41.5727 70.3404 40.8327C70.7583 40.1151 71.5162 39.6424 72.3629 39.5715C73.0589 39.5132 73.0677 39.5072 73.0677 39.0947V38.677L73.8718 38.7136C74.6669 38.7499 74.6766 38.7548 74.7198 39.1469ZM93.1374 39.2994V39.8486L92.1933 39.8847L91.2493 39.9207V42.8441V45.7673H90.4801H89.7108V42.8385V39.9096H88.7318H87.7528V39.2967V38.684L90.4451 38.717L93.1374 38.7502V39.2994ZM105.235 40.0149V41.3406L106.138 41.4038C107.267 41.4829 107.848 41.772 108.267 42.4626C108.86 43.4413 108.582 44.8841 107.681 45.5024C107.331 45.7432 107.131 45.7673 105.496 45.7673H103.697V42.2283V38.6892H104.466H105.235V40.0149ZM72.093 40.9429C71.8744 41.1459 71.747 41.442 71.7019 41.8513C71.5705 43.0449 71.9688 43.8147 72.718 43.8147H73.0677V42.2283C73.0677 40.6491 73.0661 40.6418 72.7424 40.6418C72.5635 40.6418 72.2713 40.7773 72.093 40.9429ZM74.746 42.2283V43.8147H75.0854C75.8399 43.8147 76.3032 42.7035 76.0032 41.6126C75.8332 40.9942 75.4669 40.6418 74.9945 40.6418C74.769 40.6418 74.746 40.7893 74.746 42.2283ZM105.265 43.6622L105.305 44.73L105.921 44.7181C106.682 44.7034 106.913 44.4649 106.913 43.6965C106.913 42.8895 106.629 42.5944 105.851 42.5944H105.224L105.265 43.6622Z" fill="white"/>
</svg>
