<svg width="113" height="48" viewBox="0 0 113 48" fill="none" xmlns="http://www.w3.org/2000/svg">
<path fill-rule="evenodd" clip-rule="evenodd" d="M25.9589 0.581502C23.2146 4.38073 21.6707 8.23573 21.1581 12.5691C20.9593 14.2498 21.0677 17.909 21.3607 19.4075C22.0221 22.7891 23.4626 26.2348 25.3622 28.9789C26.3547 30.4126 26.3512 30.4114 26.991 29.5703C30.1105 25.4695 32.001 19.4272 31.755 14.343C31.5133 9.34735 29.8829 4.82104 26.7949 0.572227L26.3791 0L25.9589 0.581502ZM27.8431 4.82421C29.6979 8.39694 30.5428 11.815 30.5428 15.7464C30.5428 17.1618 30.2208 20.4613 30.0699 20.5931C30.0424 20.6171 29.9762 19.9071 29.9229 19.0153C29.7423 15.9889 29.2011 13.5115 28.169 10.983C27.5845 9.55152 26.5005 7.44798 26.347 7.44798C26.1924 7.44798 25.1659 9.45243 24.6286 10.804C23.5092 13.6193 23.0226 15.759 22.9081 18.3702C22.818 20.4221 22.7132 20.9571 22.5615 20.1397C22.5054 19.8377 22.3826 18.6508 22.2888 17.502C21.9953 13.9122 22.4876 10.6785 23.8527 7.23052C24.5101 5.56948 25.6673 3.23713 26.1594 2.58131L26.3771 2.29098L26.7933 2.94742C27.0223 3.3084 27.4947 4.15301 27.8431 4.82421ZM35.8574 22.9466V31.245H37.6057H39.3539V23.9839V16.7227H41.0322H42.7105V15.6854V14.6481H39.284H35.8574V22.9466ZM44.8084 14.8203C44.8084 14.915 44.4918 17.7294 44.1049 21.0747C43.2084 28.8252 42.9912 30.7666 42.9907 31.0315C42.9902 31.2233 43.1656 31.245 44.7194 31.245H46.4485L46.5421 29.9331C46.5935 29.2115 46.6737 28.2232 46.7203 27.7365L46.805 26.8517H47.6789H48.5528L48.6337 27.3704C48.6781 27.6556 48.7567 28.6442 48.8082 29.567L48.9021 31.245H50.6925H52.483L52.4173 30.8484C52.381 30.6302 51.9768 27.1568 51.519 23.1296C51.0611 19.1024 50.6481 15.5467 50.6013 15.2278L50.5163 14.6481H47.6623C45.2989 14.6481 44.8084 14.6776 44.8084 14.8203ZM56.1372 14.775C55.3789 14.9134 54.903 15.2046 54.5286 15.7592C54.2876 16.1162 54.2423 16.4398 54.2016 18.0956L54.1543 20.0177H55.9148H57.6754L57.6775 18.7058C57.6796 17.3295 57.8365 16.8188 58.28 16.7442C58.871 16.645 58.9341 16.8798 58.9341 19.1783C58.9341 21.8923 58.9629 21.8482 57.1859 21.8482H55.9971V22.7635V23.6788H57.0553C58.0691 23.6788 58.6057 23.8045 58.8271 24.0937C58.8836 24.1675 58.9308 25.274 58.932 26.5527C58.9343 29.0159 58.8954 29.1704 58.2733 29.1704C57.7922 29.1704 57.6754 28.7518 57.6754 27.0268V25.5093H55.9158H54.1563L54.2027 27.6755C54.2543 30.0793 54.3442 30.3729 55.1908 30.8998C55.6221 31.1683 55.788 31.1861 58.1887 31.222C60.5334 31.257 60.774 31.2404 61.2987 31.0068C61.6745 30.8395 61.9748 30.5782 62.184 30.2366C62.4818 29.7502 62.5029 29.5568 62.5404 26.9738C62.5756 24.5354 62.5521 24.1804 62.3306 23.8033C62.0146 23.2657 61.2661 22.8245 60.6699 22.8245C60.0101 22.8245 59.9538 22.6166 60.5886 22.523C61.3976 22.4037 61.9945 22.0282 62.2958 21.4491C62.5265 21.0057 62.5646 20.6407 62.5665 18.8584C62.5707 15.1377 62.2139 14.751 58.7243 14.6929C57.6474 14.6748 56.4832 14.7118 56.1372 14.775ZM65.0879 22.9466V31.245H66.9061H68.7242V23.9839V16.7227H69.3536H69.983V23.9839V31.245H71.7312H73.4794V22.9466V14.6481H69.2837H65.0879V22.9466ZM76.1018 14.7178C76.044 14.7689 75.9969 18.5085 75.9969 23.028V31.245H77.815H79.6332V28.4382V25.6314H81.0721C82.9375 25.6314 83.5863 25.3836 84.1087 24.472C84.4575 23.8632 84.4583 23.8537 84.4583 20.3228C84.4583 18.3763 84.4087 16.5795 84.3478 16.3296C84.2175 15.7937 83.6895 15.2086 83.0781 14.9227C82.7143 14.7526 82.0961 14.71 79.4234 14.6713C77.6542 14.6457 76.1595 14.6667 76.1018 14.7178ZM89.004 14.7743C88.178 14.9259 87.7443 15.2153 87.3604 15.8709L87.0457 16.4084V23.0076V29.6068L87.3604 30.1443C87.9351 31.1257 88.1124 31.1786 90.9665 31.2222C93.1984 31.2562 93.5356 31.2346 94.0828 31.0234C94.5683 30.8361 94.7665 30.6624 95.0319 30.1921L95.3673 29.5975V22.9466V16.2956L95.0508 15.7785C94.5287 14.926 93.9363 14.7406 91.5911 14.6961C90.5142 14.6756 89.35 14.7108 89.004 14.7743ZM97.9547 22.9436V31.245H99.7729H101.591L101.595 26.028C101.599 21.2118 101.681 20.1795 101.931 21.7872C101.983 22.1228 102.368 24.27 102.787 26.5587C103.206 28.8474 103.549 30.8382 103.549 30.9825C103.549 31.2345 103.608 31.245 105.015 31.245C106.421 31.245 106.484 31.2338 106.552 30.9704C106.649 30.5953 107.052 28.4068 107.759 24.411C108.086 22.5652 108.405 21.0028 108.468 20.9391C108.532 20.8754 108.584 23.1681 108.584 26.0341V31.245H110.402H112.22V22.9466V14.6481H109.921C108.656 14.6481 107.592 14.6894 107.557 14.7396C107.522 14.7899 107.2 16.259 106.842 18.0041C106.484 19.7492 106.041 21.891 105.858 22.7635C105.675 23.6361 105.446 24.7756 105.349 25.2958C105.252 25.8159 105.132 26.2415 105.083 26.2415C105.033 26.2415 104.913 25.8435 104.817 25.3568C104.72 24.8701 104.494 23.7581 104.314 22.8855C104.135 22.013 103.761 20.1733 103.482 18.7973C103.204 17.4214 102.899 15.9386 102.803 15.5024L102.63 14.7091L100.292 14.6757L97.9547 14.6423V22.9436ZM17.6059 14.8987C8.96289 15.673 2.10478 21.3014 0.67724 28.7921C0.389131 30.3034 0.463255 33.4497 0.819895 34.8451C2.54855 41.6106 8.47688 46.5786 16.2772 47.7984C18.0151 48.0701 20.9436 48.0667 22.7107 47.7909C26.2865 47.2327 29.7365 45.7507 32.2748 43.6823L33.34 42.8143V37.1517V31.4891H26.417H19.494V34.0054V36.5215L19.9859 36.1942C22.6069 34.4497 26.4581 35.1658 27.9961 37.6835C29.2613 39.7547 28.7846 41.8456 26.651 43.5843C24.7759 45.1123 22.126 46.0122 19.5066 46.0105C11.0973 46.0052 5.97718 38.0988 10.2836 31.7687C10.9612 30.7727 12.3907 29.4917 13.5932 28.8028C14.7666 28.1308 16.5246 27.5311 17.6758 27.4104C18.0989 27.366 18.6826 27.2995 18.973 27.2625L19.501 27.1954L19.4625 21.0133L19.424 14.8312L19.0744 14.8148C18.8821 14.8058 18.2213 14.8435 17.6059 14.8987ZM47.952 18.1567C48.0037 18.9454 48.1353 20.6614 48.2444 21.9703C48.3535 23.2791 48.4432 24.5284 48.4437 24.7466L48.4447 25.1432H47.6643H46.884L46.9636 24.3805C47.0074 23.9611 47.1414 22.1899 47.2614 20.4448C47.3814 18.6997 47.5091 17.1484 47.5453 16.9973C47.6996 16.3519 47.8642 16.8211 47.952 18.1567ZM80.6742 16.994C80.8574 17.2221 80.8919 17.7555 80.8919 20.35C80.8919 23.3027 80.8796 23.4455 80.6037 23.6862C80.443 23.8264 80.1798 23.921 80.0093 23.8998C79.7033 23.8618 79.7031 23.86 79.6661 20.2923L79.629 16.7227H80.0427C80.3118 16.7227 80.5326 16.8175 80.6742 16.994ZM91.6331 16.8692C91.8749 17.0802 91.8749 28.813 91.6331 29.024C91.3762 29.2481 90.8488 29.1982 90.6869 28.9344C90.5929 28.7811 90.5422 26.6643 90.5422 22.9023C90.5422 17.7959 90.5683 17.0835 90.7619 16.9144C91.0237 16.6861 91.4008 16.6665 91.6331 16.8692ZM26.9816 19.3466C28.3286 22.4694 28.1614 26.3743 26.5669 29.0297L26.3814 29.3385L26.1371 28.926C24.9563 26.9336 24.511 23.7934 25.0725 21.4195C25.3219 20.3648 25.9476 18.7877 26.248 18.4566C26.4486 18.2355 26.561 18.3719 26.9816 19.3466ZM35.7176 42.2893V47.964H74.1088H112.5V42.2893V36.6146H74.1088H35.7176V42.2893ZM40.7223 40.0621L40.762 41.374H41.7363H42.7105V40.0316V38.6892H43.4797H44.249V42.2283V45.7673H43.4797H42.7105V44.1808V42.5944H41.7315H40.7525V44.1808V45.7673H39.9133H39.0742V42.2222V38.677L39.8784 38.7136L40.6826 38.7502L40.7223 40.0621ZM59.4936 39.2994V39.9096H58.095H56.6964V40.6418V41.374H57.9551H59.2138V41.9842V42.5944H57.9551H56.6964V43.6317V44.669H58.095H59.4936V45.2182V45.7673H57.3257H55.1579V42.2283V38.6892H57.3257H59.4936V39.2994ZM74.712 39.1469C74.753 39.5169 74.791 39.5435 75.2791 39.5435C75.6156 39.5435 76.0295 39.6692 76.4388 39.8958C77.3027 40.3738 77.7004 41.0963 77.7065 42.1993C77.7157 43.8427 76.7398 44.9131 75.2321 44.9131C74.7608 44.9131 74.7382 44.9327 74.7382 45.3402V45.7673H73.899H73.0599V45.3402C73.0599 44.9205 73.0498 44.9131 72.4778 44.9131C71.6806 44.9131 70.8357 44.4586 70.401 43.7962C69.9367 43.0884 69.9017 41.5727 70.3326 40.8327C70.7505 40.1151 71.5084 39.6424 72.3551 39.5715C73.051 39.5132 73.0599 39.5072 73.0599 39.0947V38.677L73.864 38.7136C74.6591 38.7499 74.6688 38.7548 74.712 39.1469ZM93.1296 39.2994V39.8486L92.1855 39.8847L91.2415 39.9207V42.8441V45.7673H90.4723H89.703V42.8385V39.9096H88.724H87.745V39.2967V38.684L90.4373 38.717L93.1296 38.7502V39.2994ZM105.227 40.0149V41.3406L106.13 41.4038C107.259 41.4829 107.84 41.772 108.259 42.4626C108.852 43.4413 108.574 44.8841 107.674 45.5024C107.323 45.7432 107.123 45.7673 105.488 45.7673H103.689V42.2283V38.6892H104.458H105.227V40.0149ZM72.0852 40.9429C71.8666 41.1459 71.7392 41.442 71.6941 41.8513C71.5627 43.0449 71.961 43.8147 72.7102 43.8147H73.0599V42.2283C73.0599 40.6491 73.0583 40.6418 72.7345 40.6418C72.5557 40.6418 72.2635 40.7773 72.0852 40.9429ZM74.7382 42.2283V43.8147H75.0776C75.8321 43.8147 76.2953 42.7035 75.9953 41.6126C75.8254 40.9942 75.4591 40.6418 74.9867 40.6418C74.7612 40.6418 74.7382 40.7893 74.7382 42.2283ZM105.257 43.6622L105.297 44.73L105.913 44.7181C106.674 44.7034 106.906 44.4649 106.906 43.6965C106.906 42.8895 106.621 42.5944 105.843 42.5944H105.216L105.257 43.6622Z" fill="white"/>
</svg>
