<svg width="21" height="21" viewBox="0 0 21 21" fill="none" xmlns="http://www.w3.org/2000/svg">
<path d="M11.9987 17.0132V19.0137C11.9987 19.279 11.8933 19.5334 11.7057 19.721C11.5181 19.9085 11.2637 20.0139 10.9984 20.0139C10.7331 20.0139 10.4787 19.9085 10.2911 19.721C10.1036 19.5334 9.99819 19.279 9.99819 19.0137V17.0132H7.99772V19.0137C7.99772 19.279 7.89234 19.5334 7.70476 19.721C7.51718 19.9085 7.26277 20.0139 6.99749 20.0139C6.73221 20.0139 6.4778 19.9085 6.29022 19.721C6.10264 19.5334 5.99726 19.279 5.99726 19.0137V17.0132C5.99726 16.9562 6.00226 16.9012 6.01126 16.8472C5.58397 16.698 5.19585 16.4542 4.87581 16.1342C4.55577 15.8142 4.31206 15.4261 4.16283 14.9988C4.10802 15.0085 4.05245 15.0132 3.99679 15.0128H1.99633C1.73105 15.0128 1.47663 14.9074 1.28906 14.7198C1.10148 14.5322 0.996094 14.2778 0.996094 14.0125C0.996094 13.7473 1.10148 13.4928 1.28906 13.3053C1.47663 13.1177 1.73105 13.0123 1.99633 13.0123H3.99679V11.0118H1.99633C1.73105 11.0118 1.47663 10.9065 1.28906 10.7189C1.10148 10.5313 0.996094 10.2769 0.996094 10.0116C0.996094 9.74632 1.10148 9.49191 1.28906 9.30433C1.47663 9.11675 1.73105 9.01137 1.99633 9.01137H3.99679V7.0109H1.99633C1.73105 7.0109 1.47663 6.90552 1.28906 6.71794C1.10148 6.53036 0.996094 6.27595 0.996094 6.01067C0.996094 5.74539 1.10148 5.49098 1.28906 5.3034C1.47663 5.11582 1.73105 5.01044 1.99633 5.01044H3.99679C4.0538 5.01044 4.10882 5.01544 4.16283 5.02444C4.4629 4.16024 5.14706 3.47608 6.01126 3.17601C6.00201 3.12115 5.99733 3.06561 5.99726 3.00997V1.00951C5.99726 0.744232 6.10264 0.489819 6.29022 0.302239C6.4778 0.114659 6.73221 0.00927734 6.99749 0.00927734C7.26277 0.00927734 7.51718 0.114659 7.70476 0.302239C7.89234 0.489819 7.99772 0.744232 7.99772 1.00951V3.00997H9.99819V1.00951C9.99819 0.744232 10.1036 0.489819 10.2911 0.302239C10.4787 0.114659 10.7331 0.00927734 10.9984 0.00927734C11.2637 0.00927734 11.5181 0.114659 11.7057 0.302239C11.8933 0.489819 11.9987 0.744232 11.9987 1.00951V3.00997H13.9991V1.00951C13.9991 0.744232 14.1045 0.489819 14.2921 0.302239C14.4797 0.114659 14.7341 0.00927734 14.9993 0.00927734C15.2646 0.00927734 15.519 0.114659 15.7066 0.302239C15.8942 0.489819 15.9996 0.744232 15.9996 1.00951V3.00997C15.9996 3.06599 15.9946 3.122 15.9856 3.17601C16.8498 3.47608 17.5339 4.16024 17.834 5.02444C17.8888 5.01474 17.9444 5.01005 18 5.01044H20.0005C20.2658 5.01044 20.5202 5.11582 20.7078 5.3034C20.8954 5.49098 21.0007 5.74539 21.0007 6.01067C21.0007 6.27595 20.8954 6.53036 20.7078 6.71794C20.5202 6.90552 20.2658 7.0109 20.0005 7.0109H18V9.01137H20.0005C20.2658 9.01137 20.5202 9.11675 20.7078 9.30433C20.8954 9.49191 21.0007 9.74632 21.0007 10.0116C21.0007 10.2769 20.8954 10.5313 20.7078 10.7189C20.5202 10.9065 20.2658 11.0118 20.0005 11.0118H18V13.0123H20.0005C20.2658 13.0123 20.5202 13.1177 20.7078 13.3053C20.8954 13.4928 21.0007 13.7473 21.0007 14.0125C21.0007 14.2778 20.8954 14.5322 20.7078 14.7198C20.5202 14.9074 20.2658 15.0128 20.0005 15.0128H18C17.943 15.0128 17.888 15.0078 17.834 14.9988C17.6848 15.4261 17.4411 15.8142 17.121 16.1342C16.801 16.4542 16.4129 16.698 15.9856 16.8472C15.9956 16.9012 15.9996 16.9572 15.9996 17.0132V19.0137C15.9996 19.279 15.8942 19.5334 15.7066 19.721C15.519 19.9085 15.2646 20.0139 14.9993 20.0139C14.7341 20.0139 14.4797 19.9085 14.2921 19.721C14.1045 19.5334 13.9991 19.279 13.9991 19.0137V17.0132H11.9987ZM8.99795 7.0109C8.73268 7.0109 8.47826 7.11629 8.29068 7.30387C8.1031 7.49145 7.99772 7.74586 7.99772 8.01114V12.0121C7.99772 12.2773 8.1031 12.5318 8.29068 12.7193C8.47826 12.9069 8.73268 13.0123 8.99795 13.0123H12.9989C13.2642 13.0123 13.5186 12.9069 13.7062 12.7193C13.8937 12.5318 13.9991 12.2773 13.9991 12.0121V8.01114C13.9991 7.74586 13.8937 7.49145 13.7062 7.30387C13.5186 7.11629 13.2642 7.0109 12.9989 7.0109H8.99795Z" fill="#009FAC"/>
</svg>
