<svg width="21" height="21" viewBox="0 0 21 21" fill="none" xmlns="http://www.w3.org/2000/svg">
<path d="M15.7086 9.46638L17.4532 7.72142L13.2862 3.55353L11.5416 5.29849L6.94111 0.708251C6.07436 -0.158671 4.66312 -0.158671 3.79636 0.708251L1.68505 2.81998C0.818299 3.6869 0.818299 5.09843 1.68505 5.96535L6.27438 10.5556L0.996094 15.846V20.0139H5.16316L10.4526 14.7235L15.0419 19.3137C16.0976 20.3696 17.5199 19.9806 18.1866 19.3137L20.298 17.202C21.1647 16.3351 21.1647 14.9235 20.298 14.0566L15.7086 9.46638ZM7.86342 8.97735L3.26298 4.38711L5.36318 2.27538L6.77443 3.6869L5.46319 5.00952L7.03001 6.57664L8.35236 5.25403L9.96363 6.86562L7.86342 8.97735ZM16.6198 17.7466L12.0305 13.1564L14.1418 11.0446L15.7531 12.6562L14.4307 13.9788L15.9975 15.5459L17.3199 14.2233L18.7311 15.6349L16.6198 17.7466ZM20.6758 4.49825C20.7788 4.39543 20.8605 4.2733 20.9163 4.13884C20.972 4.00439 21.0007 3.86025 21.0007 3.71469C21.0007 3.56913 20.972 3.42499 20.9163 3.29054C20.8605 3.15608 20.7788 3.03395 20.6758 2.93113L18.0755 0.330362C17.5533 -0.192014 16.831 0.00804492 16.5087 0.330362L14.4752 2.36429L18.6422 6.53219L20.6758 4.49825Z" fill="#009FAC"/>
</svg>
