<svg width="24" height="22" viewBox="0 0 24 22" fill="none" xmlns="http://www.w3.org/2000/svg">
<path d="M11.9994 0.244141C12.5385 0.244141 13.0554 0.467301 13.4366 0.864529C13.8178 1.26176 14.0319 1.80051 14.0319 2.36228C14.0319 3.14599 13.6254 3.83439 13.0157 4.19447V5.53949H14.0319C15.9187 5.53949 17.7281 6.32055 19.0623 7.71085C20.3964 9.10115 21.1459 10.9868 21.1459 12.953H22.1622C22.4317 12.953 22.6902 13.0646 22.8808 13.2632C23.0714 13.4618 23.1785 13.7312 23.1785 14.012V17.1893C23.1785 17.4701 23.0714 17.7395 22.8808 17.9381C22.6902 18.1367 22.4317 18.2483 22.1622 18.2483H21.1459V19.3074C21.1459 19.8692 20.9317 20.4079 20.5506 20.8051C20.1694 21.2024 19.6524 21.4255 19.1133 21.4255H4.88543C4.34636 21.4255 3.82937 21.2024 3.44819 20.8051C3.06701 20.4079 2.85287 19.8692 2.85287 19.3074V18.2483H1.83659C1.56706 18.2483 1.30856 18.1367 1.11797 17.9381C0.927384 17.7395 0.820313 17.4701 0.820312 17.1893V14.012C0.820312 13.7312 0.927384 13.4618 1.11797 13.2632C1.30856 13.0646 1.56706 12.953 1.83659 12.953H2.85287C2.85287 10.9868 3.60237 9.10115 4.9365 7.71085C6.27062 6.32055 8.08009 5.53949 9.96682 5.53949H10.9831V4.19447C10.3733 3.83439 9.96682 3.14599 9.96682 2.36228C9.96682 1.80051 10.181 1.26176 10.5621 0.864529C10.9433 0.467301 11.4603 0.244141 11.9994 0.244141ZM7.42613 11.8939C6.75229 11.8939 6.10606 12.1729 5.62958 12.6694C5.15311 13.1659 4.88543 13.8394 4.88543 14.5416C4.88543 15.2438 5.15311 15.9172 5.62958 16.4138C6.10606 16.9103 6.75229 17.1893 7.42613 17.1893C8.09996 17.1893 8.7462 16.9103 9.22267 16.4138C9.69914 15.9172 9.96682 15.2438 9.96682 14.5416C9.96682 13.8394 9.69914 13.1659 9.22267 12.6694C8.7462 12.1729 8.09996 11.8939 7.42613 11.8939ZM16.5726 11.8939C15.8988 11.8939 15.2526 12.1729 14.7761 12.6694C14.2996 13.1659 14.0319 13.8394 14.0319 14.5416C14.0319 15.2438 14.2996 15.9172 14.7761 16.4138C15.2526 16.9103 15.8988 17.1893 16.5726 17.1893C17.2465 17.1893 17.8927 16.9103 18.3692 16.4138C18.8457 15.9172 19.1133 15.2438 19.1133 14.5416C19.1133 13.8394 18.8457 13.1659 18.3692 12.6694C17.8927 12.1729 17.2465 11.8939 16.5726 11.8939Z" fill="#009FAC"/>
</svg>
