<svg width="95" height="32" viewBox="0 0 95 32" fill="none" xmlns="http://www.w3.org/2000/svg">
<path fill-rule="evenodd" clip-rule="evenodd" d="M9.80153 7.36197V14.6108H11.2074H12.6133V7.36197V0H11.2074H9.80153V7.36197ZM6.5881 10.3737V17.5925H7.99397H9.39985V10.3737V3.07864H7.99397H6.5881V10.3737ZM13.1489 10.3784V17.6018H14.5157H15.8937L15.9313 10.3402L15.9689 3.07864H14.5589H13.1489V10.3784ZM3.37467 12.5467V19.0793L4.68253 20.3818C5.40181 21.0982 6.03164 21.6843 6.08198 21.6843C6.13233 21.6843 6.16138 18.1758 6.14652 13.8874L6.11947 6.09036L4.74707 6.05221L3.37467 6.01406V12.5467ZM16.3623 13.8973V21.7465L17.7694 20.3446L19.1766 18.9426L19.1418 12.5164L19.1071 6.09036L17.7347 6.06921L16.3623 6.04806V13.8973ZM0.0273438 9C0.0273438 9 0.0273438 10.8292 0.0273438 12.722V16.1634L1.13303 17.1503C1.74117 17.6931 2.37382 18.2519 2.53891 18.3922L2.8391 18.6472V13.8882V9.01476L1.36068 9C0.637789 8.9913 0.0273438 9 0.0273438 9ZM19.6516 9V18.6057C19.6516 18.6057 20.3248 18.0786 21.0548 17.4345L22.3821 16.2633L22.3848 12.6773V9H21.0273H19.6516ZM19.5757 28.2983V31.8572H20.6469H21.718V30.6526V29.4479L23.8938 29.4377C26.3602 29.4262 26.8577 29.3109 27.308 28.6476C27.5576 28.2799 27.6093 28.0221 27.6093 27.1459C27.6093 25.9152 27.4067 25.4135 26.7702 25.0679C26.3973 24.8654 25.8688 24.8263 22.9565 24.7861L19.5757 24.7393V28.2983ZM30.1533 24.9136C29.5298 25.0984 29.1109 25.5082 28.9488 26.0916C28.8756 26.3548 28.8155 27.4133 28.8153 28.444C28.8147 30.5142 28.9453 30.9881 29.6608 31.5131C30.0152 31.7731 30.217 31.7903 32.8978 31.7903C35.5878 31.7903 35.7792 31.7739 36.1349 31.5106C36.8325 30.9947 36.9152 30.6536 36.9111 28.3101C36.9053 24.9306 36.8178 24.85 33.0989 24.8049C31.6815 24.7876 30.4214 24.8342 30.1533 24.9136ZM39.3249 24.959C38.1805 25.3748 37.9849 25.9875 38.0801 28.8566C38.1471 30.8702 38.265 31.1799 39.1336 31.6227C39.8147 31.97 44.4586 31.97 45.1398 31.6227C45.8405 31.2656 46.0925 30.8278 46.1251 29.911L46.1535 29.1132H45.0835H44.0136L43.9448 29.5112C43.8496 30.0611 43.4053 30.2467 42.1788 30.249C41.0244 30.2513 40.5445 30.1189 40.4038 29.7594C40.3512 29.6248 40.3133 28.9467 40.3197 28.2526C40.3354 26.5438 40.3762 26.5031 42.0795 26.5031C42.7985 26.5031 43.4791 26.5386 43.5921 26.5818C43.705 26.6252 43.866 26.8685 43.95 27.1227L44.1025 27.5848L45.128 27.5458L46.1535 27.507L46.137 26.8305C46.1164 25.9848 45.8077 25.3726 45.2474 25.0664C44.6498 24.74 40.1518 24.6583 39.3249 24.959ZM47.3837 24.9465C47.3427 25.0532 47.3033 26.6518 47.2962 28.499L47.2832 31.8572H48.4255H49.5677V30.5298C49.5677 29.7809 49.625 29.183 49.6992 29.1578C49.7715 29.1333 50.5849 29.1317 51.5068 29.1543L53.1828 29.1954V30.5263V31.8572H54.3232H55.4634L55.4278 28.3436L55.3921 24.8299H54.3209H53.2498L53.2397 26.1458L53.2297 27.4616L51.4497 27.4573C50.4708 27.4549 49.6525 27.435 49.6312 27.413C49.6099 27.3911 49.5719 26.8009 49.5466 26.1015L49.5008 24.8299L48.4794 24.7911C47.6847 24.761 47.4416 24.7954 47.3837 24.9465ZM58.0699 24.8873C56.7682 25.2014 56.5971 25.5992 56.5971 28.3101C56.5971 30.6522 56.6807 30.9952 57.3765 31.5106C57.7329 31.7747 57.9493 31.7927 61.2259 31.832L64.6976 31.8737V31.0623V30.251H62.16C60.5057 30.251 59.5024 30.1964 59.278 30.0943C58.9638 29.951 58.6808 29.395 58.8406 29.235C58.8772 29.1985 60.1949 29.1562 61.7689 29.1409L64.6307 29.1132V28.3101V27.507L62.0867 27.48C60.6875 27.4651 59.377 27.45 59.1745 27.4465C58.7383 27.4389 58.6706 27.069 59.0435 26.7316C59.2408 26.553 59.7289 26.5103 61.9556 26.4766L64.6307 26.4362L64.6706 25.5996L64.7103 24.763L61.591 24.7766C59.8753 24.7843 58.2909 24.8341 58.0699 24.8873ZM70.7228 25.4323V26.1015L68.8148 26.1021C66.7182 26.1026 66.3147 26.2221 65.8099 26.9923C65.4528 27.5371 65.4729 29.0321 65.844 29.5297C66.4763 30.3775 66.6902 30.4478 68.7909 30.4978L70.7228 30.5439V31.2006V31.8572H71.787H72.851L72.8916 31.1678L72.932 30.4784L74.6212 30.4934C76.1168 30.5067 76.3775 30.4744 76.8945 30.2123C77.6858 29.8112 78.0194 29.2067 77.9965 28.2152C77.9753 27.2865 77.6155 26.6276 76.9599 26.3165C76.6128 26.1519 76.0807 26.1015 74.6859 26.1015H72.8651V25.4323V24.763H71.794H70.7228V25.4323ZM77.953 25.6407V26.5183L79.3254 26.4928L80.6978 26.4672L80.7341 29.1622L80.7703 31.8572H81.9057H83.041V29.1802V26.5031L84.4134 26.4873C85.1683 26.4785 85.8309 26.4785 85.8862 26.4873C85.9415 26.496 85.9866 26.1116 85.9866 25.633V24.763H81.9698H77.953V25.6407ZM86.9239 28.3101V31.8572L90.1708 31.8543C93.0554 31.8518 93.4794 31.8234 93.9704 31.6005C94.7044 31.2672 95.0139 30.5135 94.9337 29.2543C94.8717 28.2825 94.5943 27.7756 93.9412 27.4414C93.5965 27.2651 92.0749 27.1757 89.3674 27.1728C89.0774 27.1724 89.0661 27.1276 89.0661 25.9677V24.763H87.995H86.9239V28.3101ZM25.3063 26.6637C25.5317 26.889 25.5064 27.3817 25.2567 27.6313C25.0879 27.8 24.7164 27.8416 23.3822 27.8416H21.718V27.1724V26.5031H23.4318C24.5863 26.5031 25.1981 26.5556 25.3063 26.6637ZM34.4378 26.6339C34.5831 26.7254 34.6571 27.0962 34.7056 27.9728C34.7874 29.4542 34.676 29.9502 34.2231 30.1225C33.7918 30.2863 32.013 30.2897 31.586 30.1274C31.1336 29.9554 31.0645 29.6974 31.0831 28.2489C31.1051 26.5325 31.1362 26.5024 32.8853 26.5051C33.6287 26.5063 34.3274 26.5641 34.4378 26.6339ZM70.7228 28.3101V29.0463H69.5273C68.2254 29.0463 67.9111 28.9031 67.9111 28.3101C67.9111 27.7171 68.2254 27.5739 69.5273 27.5739H70.7228V28.3101ZM75.4665 27.7842C75.5822 27.9 75.6768 28.1366 75.6768 28.3101C75.6768 28.9031 75.3625 29.0463 74.0606 29.0463H72.8651V28.3101V27.5739H74.0606C74.9688 27.5739 75.3066 27.6245 75.4665 27.7842ZM92.7364 29.3435C92.8374 29.6315 92.8127 29.7642 92.6179 29.9793C92.396 30.2244 92.2101 30.251 90.719 30.251H89.0661V29.5906C89.0661 28.8032 89.0465 28.8095 91.2057 28.9125C92.5875 28.9783 92.6108 28.9849 92.7364 29.3435Z" fill="white"/>
<path d="M6.5881 32V25.7821V18.4871H7.99397H9.39985V25.7821V32H7.99397H6.5881Z" fill="white"/>
<path d="M13.0819 32V25.7821V18.4871H14.4878H15.8937V25.7821V32H14.4878H13.0819Z" fill="white"/>
<path d="M9.80153 32V25.7821V15.5053H11.2074H12.6133V25.7821V32H11.2074H9.80153Z" fill="white"/>
</svg>
