<svg width="194" height="32" viewBox="0 0 194 32" fill="none" xmlns="http://www.w3.org/2000/svg">
<path d="M26.7056 6.77734C27.4138 7.69049 28.0133 8.68254 28.492 9.73359L14.9119 19.7174L9.23633 16.1692V11.9006L14.9119 15.4487L26.7056 6.77734Z" fill="white"/>
<path d="M3.44421 15.868C3.44421 15.6765 3.44889 15.4862 3.45826 15.297L0.0187323 15.1289C0.00702524 15.3741 4.15651e-06 15.6216 4.15651e-06 15.8715C-0.00145927 17.8235 0.383523 19.7565 1.13288 21.5596C1.88223 23.3629 2.98119 25.0008 4.36673 26.3795L6.80647 23.9475C5.73993 22.8881 4.89384 21.6289 4.31683 20.2424C3.73982 18.8558 3.44327 17.3692 3.44421 15.868Z" fill="white"/>
<path d="M14.9094 4.43409C15.1014 4.43409 15.2921 4.4411 15.4818 4.45043L15.6539 1.01899C15.4073 1.00731 15.1591 1.00148 14.9094 1.00148C12.9512 0.999094 11.012 1.38249 9.20282 2.12964C7.39368 2.8768 5.75035 3.973 4.36719 5.3553L6.80693 7.78848C7.86921 6.72446 9.13191 5.88034 10.5224 5.30468C11.9129 4.72901 13.4038 4.43314 14.9094 4.43409Z" fill="white"/>
<path d="M14.9098 27.3014C14.7178 27.3014 14.5269 27.3014 14.3362 27.2862L14.1641 30.7165C14.4115 30.729 14.6601 30.7352 14.9098 30.7352C16.8671 30.7372 18.8055 30.3536 20.6136 29.6062C22.4218 28.8589 24.0641 27.7625 25.4462 26.3802L23.0111 23.9482C21.9486 25.0117 20.6861 25.8553 19.2958 26.4308C17.9056 27.0062 16.415 27.3022 14.9098 27.3014Z" fill="white"/>
<path d="M21.3713 6.42915L24.27 4.29836C21.6206 2.15877 18.3134 0.994061 14.9043 1.00002V4.4338C17.2128 4.43095 19.4677 5.12671 21.3713 6.42915Z" fill="white"/>
<path d="M29.8174 15.8675C29.8193 14.9742 29.7409 14.0825 29.5832 13.2031L26.3744 15.5616C26.3744 15.6632 26.3744 15.7648 26.3744 15.8675C26.3752 17.465 26.0394 19.0449 25.3889 20.5048C24.7382 21.9646 23.7872 23.2718 22.5977 24.3416L24.9122 26.8928C26.4587 25.5003 27.6946 23.7993 28.5396 21.9C29.3847 20.0007 29.82 17.9454 29.8174 15.8675Z" fill="white"/>
<path d="M14.9085 27.3017C13.3065 27.3022 11.7223 26.9672 10.2583 26.3184C8.79442 25.6696 7.48345 24.7213 6.41032 23.5352L3.85352 25.8422C5.24953 27.3849 6.95507 28.6176 8.85954 29.4606C10.764 30.3035 12.8248 30.7379 14.9085 30.7354V27.3017Z" fill="white"/>
<path d="M7.22091 7.39339L4.9076 4.84229C3.3606 6.23445 2.12428 7.93536 1.27883 9.8347C0.433389 11.734 -0.00230497 13.7894 9.1703e-06 15.8675H3.44422C3.44351 14.27 3.77934 12.6901 4.42993 11.2303C5.08054 9.77053 6.0314 8.46331 7.22091 7.39339Z" fill="white"/>
<path d="M86.0341 9.50255L90.2998 6.40381H76.0234V25.0245H90.2998V21.9258H80.0971V17.1561H88.8005V14.0573H80.0971V9.50255H86.0341Z" fill="white"/>
<path d="M66.4163 13.6577H61.4599V9.50122H69.3702L73.6333 6.39307H57.3887V25.0138H65.8921C70.6595 25.0138 73.3955 22.8832 73.3955 19.1676C73.3955 15.613 70.9173 13.6577 66.4163 13.6577ZM65.7087 21.9141H61.4599V16.7545H65.7087C68.2872 16.7545 69.4962 17.6192 69.4962 19.3343C69.4962 21.0494 68.2098 21.9141 65.7087 21.9141Z" fill="white"/>
<path d="M100.795 6.40088H93.0234V25.0215H97.0965V19.7466H100.795C105.753 19.7466 108.82 17.1742 108.82 13.0638C108.82 8.95356 105.753 6.40088 100.795 6.40088ZM100.709 16.6455H97.0965V9.50198H100.709C103.317 9.50198 104.756 10.7713 104.756 13.0752C104.756 15.3791 103.317 16.6455 100.709 16.6455Z" fill="white"/>
<path d="M51.277 20.6274C50.2247 21.1892 49.0459 21.4801 47.8494 21.4732C44.2684 21.4732 41.6705 18.9524 41.6705 15.4812C41.6705 12.01 44.2684 9.48367 47.8494 9.48367C49.1408 9.46204 50.4054 9.84816 51.4585 10.5857L54.3077 8.51668L54.115 8.38169C52.453 6.94085 50.2322 6.17773 47.6903 6.17773C44.9332 6.17773 42.4331 7.09237 40.6482 8.75636C39.7456 9.61313 39.0319 10.6441 38.5512 11.785C38.0706 12.926 37.8335 14.1522 37.8548 15.3875C37.8357 16.6353 38.0718 17.8741 38.5488 19.03C39.0259 20.186 39.7341 21.2351 40.6314 22.1151C42.4247 23.8452 44.9192 24.7984 47.6567 24.7984C50.5171 24.7984 53.0172 23.8149 54.71 22.0242L52.1597 20.1509L51.277 20.6274Z" fill="white"/>
<path d="M124.97 13.6577H120.015V9.50122H130.662V6.39307H115.941V25.0138H124.434C129.201 25.0138 131.937 22.8832 131.937 19.1676C131.948 15.613 129.471 13.6577 124.97 13.6577ZM124.262 21.9141H120.015V16.7545H124.262C126.841 16.7545 128.049 17.6192 128.049 19.3343C128.049 21.0494 126.774 21.9141 124.262 21.9141Z" fill="white"/>
<path d="M178.247 24.9874H174.117V6.3667H178.247V14.1875H180.494L186.564 6.3667H191.244L184.044 15.2248L192.404 24.9874H186.925L180.781 17.6641H178.247V24.9874Z" fill="white"/>
<path d="M146.939 21.4486H138.204L136.723 25.0645H132.328L140.521 6.44385H144.915L152.975 25.0645H148.42L146.939 21.4486ZM145.571 18.0747L142.597 10.8428L139.607 18.0747H145.571Z" fill="white"/>
<path d="M158.535 6.44385V14.2195H167.08V6.44385H171.338V25.0645H167.08V17.7273H158.535V25.0645H154.277V6.44385H158.535Z" fill="white"/>
</svg>
