<svg width="195" height="48" viewBox="0 0 195 48" fill="none" xmlns="http://www.w3.org/2000/svg">
<g clip-path="url(#clip0_10275_3299)">
<path d="M27.2056 14.7771C27.9138 15.6902 28.5133 16.6823 28.992 17.7333L15.4119 27.7171L9.73633 24.169V19.9003L15.4119 23.4485L27.2056 14.7771Z" fill="#001337"/>
<path d="M3.94421 23.8678C3.94421 23.6762 3.9489 23.4859 3.95826 23.2968L0.518732 23.1287C0.507025 23.3738 0.500004 23.6214 0.500004 23.8712C0.498541 25.8232 0.883523 27.7562 1.63288 29.5594C2.38222 31.3627 3.48119 33.0006 4.86673 34.3792L7.30647 31.9472C6.23993 30.8878 5.39384 29.6287 4.81683 28.2421C4.23982 26.8556 3.94327 25.3689 3.94421 23.8678Z" fill="#001337"/>
<path d="M15.4094 12.4341C15.6014 12.4341 15.7921 12.4411 15.9818 12.4504L16.1539 9.01899C15.9073 9.00731 15.6591 9.00148 15.4094 9.00148C13.4512 8.99909 11.512 9.38249 9.70282 10.1296C7.89368 10.8768 6.25035 11.973 4.86719 13.3553L7.30693 15.7885C8.36921 14.7245 9.63191 13.8803 11.0224 13.3047C12.4129 12.729 13.9038 12.4331 15.4094 12.4341Z" fill="#001337"/>
<path d="M15.4098 35.3017C15.2178 35.3017 15.0269 35.3017 14.8362 35.2865L14.6641 38.7168C14.9115 38.7292 15.1601 38.7355 15.4098 38.7355C17.3671 38.7375 19.3055 38.3538 21.1136 37.6065C22.9218 36.8591 24.5641 35.7628 25.9462 34.3805L23.5111 31.9485C22.4486 33.0119 21.1861 33.8556 19.7958 34.431C18.4056 35.0065 16.915 35.3024 15.4098 35.3017Z" fill="#001337"/>
<path d="M21.8713 14.4292L24.77 12.2984C22.1206 10.1588 18.8134 8.99406 15.4043 9.00002V12.4338C17.7128 12.4309 19.9677 13.1267 21.8713 14.4292Z" fill="#001337"/>
<path d="M30.3174 23.8677C30.3193 22.9745 30.2409 22.0827 30.0832 21.2034L26.8744 23.5618C26.8744 23.6635 26.8744 23.765 26.8744 23.8677C26.8752 25.4653 26.5394 27.0452 25.8889 28.505C25.2382 29.9648 24.2872 31.272 23.0977 32.3418L25.4122 34.893C26.9587 33.5006 28.1946 31.7996 29.0396 29.9003C29.8847 28.0009 30.32 25.9456 30.3174 23.8677Z" fill="#001337"/>
<path d="M15.4085 35.3016C13.8065 35.3021 12.2223 34.9671 10.7583 34.3183C9.29442 33.6695 7.98345 32.7212 6.91032 31.535L4.35352 33.8421C5.74953 35.3848 7.45507 36.6175 9.35954 37.4605C11.264 38.3034 13.3248 38.7378 15.4085 38.7353V35.3016Z" fill="#001337"/>
<path d="M7.72091 15.3935L5.4076 12.8424C3.8606 14.2346 2.62428 15.9355 1.77883 17.8348C0.933389 19.7342 0.497695 21.7895 0.500009 23.8676H3.94422C3.94351 22.2702 4.27934 20.6902 4.92993 19.2304C5.58054 17.7707 6.5314 16.4634 7.72091 15.3935Z" fill="#001337"/>
<path d="M86.5341 17.5025L90.7998 14.4038H76.5234V33.0245H90.7998V29.9258H80.5971V25.1561H89.3005V22.0573H80.5971V17.5025H86.5341Z" fill="#001337"/>
<path d="M66.9163 21.6578H61.9599V17.5013H69.8702L74.1333 14.3932H57.8887V33.0139H66.3921C71.1595 33.0139 73.8955 30.8834 73.8955 27.1677C73.8955 23.6131 71.4173 21.6578 66.9163 21.6578ZM66.2087 29.9142H61.9599V24.7546H66.2087C68.7872 24.7546 69.9962 25.6193 69.9962 27.3345C69.9962 29.0496 68.7098 29.9142 66.2087 29.9142Z" fill="#001337"/>
<path d="M101.295 14.4011H93.5234V33.0218H97.5965V27.7469H101.295C106.253 27.7469 109.32 25.1744 109.32 21.0641C109.32 16.9538 106.253 14.4011 101.295 14.4011ZM101.209 24.6458H97.5965V17.5022H101.209C103.817 17.5022 105.256 18.7715 105.256 21.0754C105.256 23.3793 103.817 24.6458 101.209 24.6458Z" fill="#001337"/>
<path d="M51.777 28.6274C50.7247 29.1892 49.5459 29.4801 48.3494 29.4732C44.7684 29.4732 42.1705 26.9524 42.1705 23.4812C42.1705 20.01 44.7684 17.4837 48.3494 17.4837C49.6408 17.462 50.9054 17.8482 51.9585 18.5857L54.8077 16.5167L54.615 16.3817C52.953 14.9409 50.7322 14.1777 48.1903 14.1777C45.4332 14.1777 42.9331 15.0924 41.1482 16.7564C40.2456 17.6131 39.5319 18.6441 39.0512 19.785C38.5706 20.926 38.3335 22.1522 38.3548 23.3875C38.3357 24.6353 38.5718 25.8741 39.0488 27.03C39.5259 28.186 40.2341 29.2351 41.1314 30.1151C42.9247 31.8452 45.4192 32.7984 48.1567 32.7984C51.0171 32.7984 53.5172 31.8149 55.21 30.0242L52.6597 28.1509L51.777 28.6274Z" fill="#001337"/>
<path d="M125.47 21.6578H120.515V17.5013H131.162V14.3932H116.441V33.0139H124.934C129.701 33.0139 132.437 30.8834 132.437 27.1677C132.448 23.6131 129.971 21.6578 125.47 21.6578ZM124.762 29.9142H120.515V24.7546H124.762C127.341 24.7546 128.549 25.6193 128.549 27.3345C128.549 29.0496 127.274 29.9142 124.762 29.9142Z" fill="#001337"/>
<path d="M178.747 32.9872H174.617V14.3665H178.747V22.1873H180.994L187.064 14.3665H191.744L184.544 23.2245L192.904 32.9872H187.425L181.281 25.6638H178.747V32.9872Z" fill="#001337"/>
<path d="M147.439 29.4485H138.704L137.223 33.0644H132.828L141.021 14.4437H145.415L153.475 33.0644H148.92L147.439 29.4485ZM146.071 26.0746L143.097 18.8427L140.107 26.0746H146.071Z" fill="#001337"/>
<path d="M159.035 14.4437V22.2194H167.58V14.4437H171.838V33.0644H167.58V25.7272H159.035V33.0644H154.777V14.4437H159.035Z" fill="#001337"/>
</g>
<defs>
<clipPath id="clip0_10275_3299">
<rect width="194" height="48" fill="white" transform="translate(0.5)"/>
</clipPath>
</defs>
</svg>
